<?xml version="1.0" encoding="UTF-8" standalone="no"?>
<!-- Created with Inkscape (http://www.inkscape.org/) -->

<svg
   width="5.625in"
   height="8.5in"
   viewBox="0 0 142.875 215.9"
   version="1.1"
   id="svg5"
   inkscape:version="1.2.2 (b0a8486541, 2022-12-01)"
   sodipodi:docname="directors-cut-front-cover-layout.svg"
   inkscape:export-filename="/home/dynohub/github-localcopy-repos/grannycart/subworld/subworld-book1/cover/pre-release-draft-front-cover-layout.png"
   inkscape:export-xdpi="95.581299"
   inkscape:export-ydpi="95.581299"
   xmlns:inkscape="http://www.inkscape.org/namespaces/inkscape"
   xmlns:sodipodi="http://sodipodi.sourceforge.net/DTD/sodipodi-0.dtd"
   xmlns:xlink="http://www.w3.org/1999/xlink"
   xmlns="http://www.w3.org/2000/svg"
   xmlns:svg="http://www.w3.org/2000/svg">
  <sodipodi:namedview
     id="namedview7"
     pagecolor="#ffffff"
     bordercolor="#666666"
     borderopacity="1.0"
     inkscape:pageshadow="2"
     inkscape:pageopacity="0.0"
     inkscape:pagecheckerboard="0"
     inkscape:document-units="mm"
     showgrid="false"
     width="5.625in"
     units="in"
     inkscape:zoom="1"
     inkscape:cx="322.5"
     inkscape:cy="392.5"
     inkscape:window-width="1910"
     inkscape:window-height="1052"
     inkscape:window-x="0"
     inkscape:window-y="18"
     inkscape:window-maximized="1"
     inkscape:current-layer="svg5"
     inkscape:showpageshadow="0"
     inkscape:deskcolor="#d1d1d1" />
  <defs
     id="defs2">
    <linearGradient
       inkscape:collect="always"
       id="linearGradient28032">
      <stop
         style="stop-color:#acacff;stop-opacity:1;"
         offset="0"
         id="stop28028" />
      <stop
         style="stop-color:#000000;stop-opacity:1;"
         offset="1"
         id="stop28030" />
    </linearGradient>
    <rect
       x="39.658321"
       y="62.006805"
       width="560.46811"
       height="99.399347"
       id="rect6284" />
    <rect
       x="26.23208"
       y="75.912186"
       width="249.45049"
       height="236.80807"
       id="rect3198" />
    <rect
       x="39.658321"
       y="62.006805"
       width="225.52695"
       height="63.792194"
       id="rect6284-3" />
    <rect
       x="39.658321"
       y="62.006805"
       width="399.5238"
       height="63.171448"
       id="rect6284-3-7" />
    <linearGradient
       inkscape:collect="always"
       xlink:href="#linearGradient28032"
       id="linearGradient28034"
       x1="71.488579"
       y1="72.788673"
       x2="71.488579"
       y2="216.14265"
       gradientUnits="userSpaceOnUse" />
  </defs>
  <g
     id="layer2"
     inkscape:label="ocean depths"
     sodipodi:insensitive="true">
    <rect
       style="fill:url(#linearGradient28034);fill-opacity:1;stroke-width:0.165;stroke-linecap:round;stroke-linejoin:round;stroke-dasharray:0.165, 0.495001"
       id="rect27448"
       width="142.11742"
       height="142.68988"
       x="0.41731986"
       y="72.821365" />
  </g>
  <g
     inkscape:groupmode="layer"
     id="layer3"
     inkscape:label="ocean surface">
    <path
       d="m 56.725372,73.010234 -10.181969,-0.04735 v 0.07896 0.07896 l 9.899669,0.05623 m -23.854466,18.26082 0.573012,-0.0159 0.290913,-0.0441 0.290913,-0.0441 v -0.10244 -0.10245 l -0.55538,0.0665 -0.555379,0.0665 -0.250998,0.0382 -0.251001,0.0382 -0.05755,0.0576 -0.05755,0.0576 z m 5.439195,-0.10882 1.057867,0.002 0.113975,-0.0472 0.113974,-0.0472 0.99679,-0.0973 0.99679,-0.0973 -1.163653,0.0727 -1.163653,0.0727 -1.249446,8.5e-4 -1.249444,8.3e-4 0.244472,0.0688 0.244473,0.0688 1.057865,0.002 z m -6.103968,0.0157 0.07413,-0.004 -0.211572,-0.12495 -0.211573,-0.12494 -0.978527,0.025 -0.978526,0.025 -0.290913,0.0201 -0.290913,0.0201 -0.502487,-0.0821 -0.502486,-0.0821 v 0.10383 0.10382 l 0.710773,0.0761 0.710772,0.0761 0.657882,-0.13076 0.657881,-0.13077 0.540712,0.11595 0.540712,0.11595 0.07413,-0.004 z m 2.036474,-0.1162 0.153391,-0.0136 0.634719,-0.14218 0.63472,-0.14217 -0.673402,0.041 -0.673402,0.041 -0.114712,0.1147 -0.114711,0.1147 z m 1.951763,-0.11283 0.31736,-0.004 -0.18714,-0.0487 -0.18714,-0.0487 -0.13022,0.0527 -0.13022,0.0527 z m 8.857782,-2.10692 0.345652,-0.0125 0.423147,-0.098 0.423146,-0.098 0.370254,-0.0816 0.370252,-0.0816 0.26447,0.0772 0.26446,0.0772 0.4496,0.0515 0.44959,0.0515 v -0.0842 -0.0842 l -0.23802,-0.0562 -0.23802,-0.0562 -0.7934,-0.0698 -0.793399,-0.0698 -0.31736,0.16687 -0.31736,0.16687 -0.775775,6.4e-4 -0.775773,6.3e-4 -0.84764,-0.21643 -0.847639,-0.21641 -0.386532,0.12959 -0.386531,0.12959 -0.846294,0.003 -0.846292,0.002 -0.740507,-0.0845 -0.740506,-0.0845 -0.185054,0.14197 -0.185055,0.14196 1.646235,0.0299 1.646231,0.0299 0.63089,-0.11445 0.630889,-0.11445 1.000344,0.21673 1.000346,0.21673 0.345651,-0.0125 z m -15.681018,-0.14409 0.899186,0.042 0.47604,-0.11207 0.47604,-0.11208 0.12828,-0.10495 0.128281,-0.10496 0.612226,-0.0552 0.612225,-0.0552 0.721096,0.18122 0.721097,0.18121 0.05125,-0.0512 0.05125,-0.0512 -0.349205,-0.12758 -0.349207,-0.12758 -0.909775,-0.0571 -0.909774,-0.0571 -0.518345,0.16488 -0.518345,0.16487 -0.539461,0.10883 -0.539462,0.10883 -0.729978,-0.10995 -0.729977,-0.10995 -0.423146,-0.13631 -0.423147,-0.1363 -0.581826,0.0469 -0.581826,0.0468 -0.453291,0.15106 -0.453288,0.15106 h -0.366557 -0.366557 v 0.0817 0.0817 l 0.661167,-0.0658 0.661166,-0.0658 0.768113,-0.1374 0.768115,-0.13741 0.554218,0.18107 0.554219,0.18107 z m 15.127484,-2.56682 0.47604,0.0281 0.502007,-0.0591 0.502007,-0.0591 0.132712,-0.13979 0.132713,-0.13977 -0.528933,0.0805 -0.528932,0.0805 -0.7934,-0.02 -0.793399,-0.02 -0.687614,-0.0988 -0.687613,-0.0988 -0.476039,0.014 -0.47604,0.014 0.634719,0.0727 0.63472,0.0727 0.740507,0.12232 0.740505,0.12232 z m -5.333408,-0.0376 0.431963,0.01 0.05782,-0.0579 0.05783,-0.0579 0.779655,-0.15123 0.779655,-0.15125 -0.846293,0.075 -0.846293,0.075 -0.95208,-10e-4 -0.952079,-0.001 0.528934,0.12551 0.528932,0.12551 0.431962,0.01 z m 7.925183,-0.11045 h 0.42314 l -0.21157,-0.091 -0.21157,-0.091 h -0.423149 -0.423147 l 0.211574,0.091 0.211573,0.091 z m -9.732371,-0.21733 0.31736,-0.004 -0.18714,-0.0487 -0.187139,-0.0487 -0.130221,0.0527 -0.13022,0.0527 z m -2.484594,-0.13912 1.995836,0.001 -0.231661,-0.09 -0.23166,-0.09 -1.216546,0.0521 -1.216546,0.0521 -0.576108,-0.0913 -0.576109,-0.0913 -0.04979,0.0498 -0.04979,0.0499 0.07828,0.0782 0.07828,0.0782 1.995835,0.001 z m 19.093104,-2.18242 h 0.21157 l -0.21157,-0.091 -0.21158,-0.091 h -0.21157 -0.21157 l 0.21157,0.091 0.21157,0.091 z m -2.935587,10e-4 0.0793,-0.0137 0.793397,-0.0956 0.79341,-0.0956 0.23802,0.0417 0.23802,0.0417 v -0.10671 -0.1067 l -0.80936,0.0683 -0.80937,0.0685 h -0.3014 -0.301397 v 0.10583 0.10583 z m -0.925632,-0.10825 h 0.26446 l -0.13223,-0.0534 -0.13223,-0.0533 -0.13224,0.0533 -0.13223,0.0534 z m -2.37139,0.009 0.62591,-0.007 0.21157,-0.0926 0.21157,-0.0926 -0.7934,0.0619 -0.7934,0.0619 -0.0441,0.0382 -0.0441,0.0382 0.62591,-0.008 z m -0.84629,-9.5e-4 0.20276,-0.009 -0.138847,-0.0556 -0.138845,-0.0556 -0.06391,0.0638 -0.06391,0.064 0.202758,-0.009 z m -2.934302,-0.01 0.922769,0.0294 0.06111,-0.0611 0.06112,-0.0611 0.464202,-0.0987 0.464201,-0.0987 -0.740506,0.069 -0.740506,0.069 -0.65222,0.006 -0.65222,0.006 -0.05536,0.0552 -0.05536,0.0552 0.922766,0.0294 z m 5.155822,-0.0956 0.20276,-0.009 -0.13885,-0.0556 -0.13884,-0.0556 -0.0639,0.064 -0.0639,0.0639 0.20275,-0.009 z m -2.812162,-0.009 h 0.264466 l -0.132233,-0.0533 -0.132233,-0.0534 -0.132234,0.0534 -0.132233,0.0533 z m -13.064647,-0.11608 0.528934,0.007 0.501947,-0.17453 0.501946,-0.17454 5.3e-4,-0.0617 5.28e-4,-0.0617 -0.185127,0.0199 -0.185125,0.0199 -0.31736,0.0828 -0.31736,0.0827 -0.107128,0.0833 -0.107127,0.0833 -0.421805,0.043 -0.421805,0.043 0.528932,0.007 z m 3.147153,-0.0794 0.02645,-10e-4 0.158679,-0.10258 0.15868,-0.10258 -0.185125,-0.001 -0.185127,-10e-4 v 0.10583 0.10583 l 0.02645,-0.001 z m -7.82821,-0.01 0.23802,-0.0113 0.388041,-0.12119 0.388042,-0.1212 0.0576,-0.0577 0.0576,-0.0577 -0.234065,0.0113 -0.234064,0.0112 -0.449593,0.12977 -0.449594,0.12977 v 0.0488 0.0489 z m 7.27283,-0.10932 h 0.264466 l -0.211573,-0.091 -0.211573,-0.091 H 35.11867 34.854203 l 0.211574,0.091 0.211573,0.091 z m -4.06397,0.006 0.202758,-0.009 -0.138845,-0.0556 -0.138845,-0.0556 -0.06391,0.0639 -0.06391,0.064 0.202756,-0.009 z m -4.196201,0.006 0.25565,0.001 -0.04408,-0.0377 -0.04408,-0.0377 -0.370254,-0.068 -0.370252,-0.068 0.15868,0.10396 0.15868,0.10408 0.25565,0.001 z m -2.095037,-0.057 0.05865,0.0586 0.07874,-0.0787 0.07875,-0.0787 0.60005,-0.0644 0.600049,-0.0643 -0.581825,-0.014 -0.581827,-0.014 -0.155616,0.0985 -0.155616,0.0985 z m 19.347069,-2.18743 h 0.370254 l -0.185127,-0.0483 -0.185127,-0.0483 -0.185126,0.0483 -0.185127,0.0483 z m 2.600585,-0.0895 0.20276,-0.009 -0.13885,-0.0556 -0.13884,-0.0556 -0.0639,0.064 -0.0639,0.0639 0.20276,-0.009 z m -1.807186,-0.0184 0.423147,-0.002 -0.239253,-0.046 -0.239253,-0.046 -0.183894,0.0481 -0.183892,0.0481 0.423145,-0.002 z m -2.318489,0.0184 0.202758,-0.009 -0.138845,-0.0556 -0.138845,-0.0556 -0.06391,0.064 -0.06391,0.0639 0.202757,-0.009 z m -0.577419,-0.13513 0.35703,0.0681 -0.06159,-0.068 -0.06159,-0.068 -0.493793,-0.0922 -0.493792,-0.0922 v 0.0921 0.0921 h 0.19835 0.19835 z m -2.393422,0.0131 0.423147,-0.001 0.447629,-0.073 0.447627,-0.073 0.07249,-0.0725 0.07249,-0.0725 -0.149864,0.007 -0.149865,0.008 -0.793399,0.13923 -0.7934,0.13923 0.423147,-0.001 z m -0.943264,0.0162 0.202758,-0.009 -0.138845,-0.0556 -0.138845,-0.0556 -0.06391,0.064 -0.06391,0.0639 0.202757,-0.009 z m -1.057865,0 0.202757,-0.009 -0.138844,-0.0556 -0.138845,-0.0556 -0.06391,0.064 -0.06391,0.0639 0.202758,-0.009 z m -0.908002,-0.11413 h 0.264466 l -0.132233,-0.0533 -0.132233,-0.0533 -0.132234,0.0533 -0.132233,0.0533 z m -1.163653,0.001 h 0.15868 l 0.211574,-0.091 0.211572,-0.091 h -0.15868 -0.158679 l -0.211573,0.091 -0.211574,0.091 z m -0.47604,-0.006 0.31736,-0.004 -0.18714,-0.0487 -0.187139,-0.0487 -0.130221,0.0527 -0.13022,0.0527 z m 22.118709,-1.043872 0.62542,-0.0062 0.25338,-0.10133 0.25338,-0.101331 -0.055,-0.0551 -0.0551,-0.0551 -0.64301,0.103579 -0.64301,0.10358 -0.86672,-0.207009 -0.86673,-0.207009 -0.0525,0.05248 -0.0525,0.05248 0.14738,0.04186 0.14737,0.04186 0.59113,0.172236 0.59112,0.172224 0.62542,-0.0062 z m -4.29366,-0.147597 0.89919,0.04748 0.21157,-0.09783 0.21158,-0.09783 0.3967,-0.0075 0.39669,-0.0075 v -0.105828 -0.105829 l -0.18512,2.5e-5 -0.18513,1.3e-5 -0.80105,0.153282 -0.80104,0.153295 -0.67997,-0.105079 -0.67996,-0.105078 -0.42316,-0.04523 -0.42315,-0.04535 0.58183,0.160616 0.58184,0.160617 z m -3.966999,-0.07309 0.63472,-0.01125 0.423142,-0.07097 0.42315,-0.07097 0.211567,-0.124195 0.21157,-0.124196 -0.0906,-0.0037 -0.0906,-0.0037 -0.939949,0.171961 -0.93996,0.171974 -0.92647,-0.179208 -0.92647,-0.179196 -0.47604,0.12557 -0.476042,0.125582 -0.687612,0.07659 -0.687614,0.07659 0.589073,0.01662 0.589073,0.01662 0.521682,-0.150846 0.52169,-0.150833 0.26447,0.03561 0.26446,0.03561 0.47604,0.112575 0.47604,0.112575 0.63472,-0.01125 z m -4.654615,-0.110576 0.317359,-0.0037 -0.187139,-0.04873 -0.187139,-0.04873 -0.130221,0.05273 -0.13022,0.05273 0.31736,-0.0037 z m 4.072785,-1.796769 0.47604,-0.0037 0.47604,-0.115449 0.47604,-0.115449 1.141039,-0.0012 1.14105,-0.0012 -0.24185,-0.09258 -0.24186,-0.09258 -1.163657,0.06435 -1.163652,0.06435 -0.89919,0.06497 -0.89919,0.06497 0.21158,0.08434 0.21157,0.08434 0.47604,-0.0037 z m -1.82482,-0.276265 0.87274,0.153219 v -0.07496 -0.07559 l -0.50249,-0.06934 -0.50248,-0.06934 -0.554414,-0.117947 -0.554411,-0.117948 -0.873708,0.139313 -0.873708,0.139301 -0.846294,0.07672 -0.846292,0.07672 0.95208,-0.02711 0.952079,-0.02711 0.31736,-0.07634 0.31736,-0.07634 0.634719,-0.0025 0.63472,-0.0025 0.872739,0.15322 z m -8.092675,-0.005 0.132233,0.04011 0.528934,-0.0651 0.528932,-0.0651 -0.661166,-0.01662 -0.661166,-0.01662 v 0.04161 0.04161 z m -0.502487,0.06759 0.31736,-0.0037 -0.18714,-0.04873 -0.187138,-0.04873 -0.130222,0.05273 -0.13022,0.05273 0.31736,-0.0037 z m 3.332278,-0.109702 h 0.370254 l -0.185127,-0.04835 -0.185127,-0.04835 -0.185125,0.04835 -0.185127,0.04835 z m -0.927554,-0.05035 0.500565,0.04848 -0.05721,-0.09258 -0.05721,-0.09258 -0.549137,0.0087 -0.549137,0.0087 0.105791,0.03574 0.105791,0.03573 0.500565,0.04848 z m -3.665347,0.06647 0.202758,-0.0087 -0.138845,-0.0556 -0.138845,-0.0556 -0.06391,0.06397 -0.06391,0.06397 0.202758,-0.0087 z m 18.768314,-1.512123 0.26447,0.0686 -0.12481,-0.133916 -0.12481,-0.133903 -0.27173,-0.04061 -0.27173,-0.04061 -0.76668,-0.09496 -0.76667,-0.09496 -0.0533,0.06997 -0.0533,0.06997 -0.13224,0.01 -0.13223,0.01 -0.31736,0.01587 -0.31736,0.01587 v 0.105828 0.105828 h 0.22575 0.22574 l 0.41386,-0.123945 0.41385,-0.123945 0.76208,0.122696 0.76207,0.122695 z m -3.56044,-0.06552 h 0.38684 v -0.108327 -0.108327 l -0.37154,0.04098 -0.37156,0.04098 -0.4483,-0.09508 -0.4483,-0.09508 -0.846289,-0.135091 -0.84629,-0.13509 -0.47604,0.09771 -0.47604,0.09771 -0.74051,0.07846 -0.74051,0.07847 0.69642,0.01549 0.69642,0.01549 0.59288,-0.119073 0.59289,-0.119072 1.206542,0.224851 1.206547,0.22485 z m -9.662893,-0.06597 0.476039,0.06197 0.15868,-0.102205 0.15868,-0.102205 -0.678797,-0.0012 -0.678797,-0.0012 0.04408,0.04173 0.04408,0.04173 0.47604,0.06197 z m 3.775628,-0.04136 0.231777,0.0012 0.06538,-0.105828 0.0654,-0.105829 -0.138473,0.0012 -0.138477,0.0012 -0.15868,0.10258 -0.15868,0.10258 0.231777,0.0012 z m -2.798056,0.0012 h 0.173594 l 0.07473,-0.120947 0.07473,-0.120946 1.121616,0.05673 1.121618,0.05673 -0.476039,-0.09921 -0.47604,-0.09921 -0.763548,0.03299 -0.763546,0.03298 -0.130351,0.130355 -0.130349,0.130355 h 0.173593 z m -5.050356,-0.02062 0.31736,-0.0037 -0.18714,-0.04873 -0.18714,-0.04873 -0.13022,0.05273 -0.13022,0.05273 0.31736,-0.0037 z m 2.697559,-0.159854 0.793399,0.0586 -0.31736,-0.08521 -0.317359,-0.08521 -0.520118,-0.01249 -0.520118,-0.0125 0.04408,0.03911 0.04408,0.03911 z m -2.207415,0.07472 h 0.162207 l 0.06936,-0.06934 0.06936,-0.06934 0.397869,-0.08546 0.397868,-0.08546 -0.511687,0.03711 -0.511686,0.03711 -0.117748,0.117698 -0.117748,0.117698 z m -1.539195,-0.0087 0.202758,-0.0087 -0.138845,-0.0556 -0.138845,-0.0556 -0.06391,0.06397 -0.06391,0.06397 0.202757,-0.0087 z m -0.855108,-0.0125 0.31736,-0.0037 -0.18714,-0.04873 -0.187139,-0.04873 -0.13022,0.05273 -0.13022,0.05273 0.317359,-0.0037 z m 19.358956,-0.899325 0.63472,0.0546 0.63472,-0.210382 0.63472,-0.210369 0.89919,0.07484 0.89918,0.07497 0.47604,0.03524 0.47604,0.03523 0.18513,-0.05622 0.18512,-0.05622 v -0.142362 -0.142362 l -0.30674,0.115824 -0.30675,0.115823 -1.20071,-0.113699 -1.20071,-0.1137 -0.8559,0.221352 -0.8559,0.221365 -0.88958,-0.137952 -0.88958,-0.137951 -0.95208,-0.0037 -0.95208,-0.0037 -0.37025,0.08634 -0.37027,0.08634 0.26448,0.06785 0.26447,0.06785 0.35753,-0.146623 0.35752,-0.146635 0.70034,0.04935 0.70034,0.04935 0.42315,0.105329 0.42314,0.105328 0.63472,0.0546 z m -4.86619,-0.1039 0.42314,0.0516 0.13224,-0.05173 0.13223,-0.05173 v -0.07334 -0.07334 l -0.44959,-0.005 -0.4496,-0.005 -1.204199,-0.136789 -1.2042,-0.13679 -0.38806,0.116324 -0.38806,0.116323 -0.78794,0.06447 -0.787932,0.06435 -0.05289,0.05797 -0.05289,0.05797 1.004972,-0.08334 1.00497,-0.08334 1.04569,-0.02649 1.04569,-0.02649 0.276642,0.08659 0.27665,0.08659 z m -5.492089,-0.148297 0.202758,-0.0087 -0.138845,-0.0556 -0.138845,-0.0556 -0.06391,0.06397 -0.06391,0.06385 0.202758,-0.0087 z m -2.865054,0.0087 h 0.15868 v -0.105828 -0.105828 h -0.15868 -0.15868 v 0.105828 0.105828 z m -0.890371,-0.0012 0.361438,-0.0012 0.15868,-0.105703 0.15868,-0.105703 -0.47604,0.06909 -0.47604,0.0691 -0.04408,0.03823 -0.04408,0.03811 0.361437,-0.0012 z m -2.821826,-0.05123 h 0.254851 l 0.379919,-0.08984 0.379918,-0.08984 v -0.09533 -0.09533 h -0.152436 -0.152437 l -0.06538,0.105828 -0.06538,0.105829 H 39.238154 38.82125 v 0.07934 0.07934 z m -0.889521,0.02824 0.47604,3.25e-4 -0.423146,-0.08759 -0.423146,-0.08746 -0.370253,0.0062 -0.370254,0.0062 0.31736,0.08071 0.31736,0.08071 0.476039,3.13e-4 z m 6.823236,-0.08434 h 0.105791 l -0.15868,-0.102579 -0.15868,-0.10258 h -0.10579 -0.105791 l 0.15868,0.10258 0.15868,0.102579 z m -1.586799,-0.02349 0.423147,-0.0025 -0.239253,-0.04598 -0.239253,-0.04598 -0.183894,0.0481 -0.183892,0.0481 0.423145,-0.0025 z m -2.327304,0.0062 0.31736,-0.005 -0.31736,-0.08071 -0.31736,-0.08071 -0.211574,-0.005 -0.211573,-0.005 0.211573,0.09096 0.211574,0.09096 0.31736,-0.005 z m 3.120704,-0.110326 h 0.370254 l -0.185127,-0.04835 -0.185127,-0.04835 -0.185126,0.04835 -0.185127,0.04835 z m -7.616636,0.0075 h 0.264467 l -0.132233,-0.05335 -0.132234,-0.05335 -0.132233,0.05335 -0.132232,0.05335 z m 9.520795,-0.724222 h 0.253888 l -0.126944,-0.126944 -0.126944,-0.126944 -0.126944,0.126944 -0.126944,0.126944 z m -2.106441,-0.0075 1.273955,0.01 -0.06605,-0.106828 -0.06603,-0.106828 -1.501217,0.0087 -1.501216,0.0087 0.293302,0.08821 0.293303,0.08821 1.273952,0.01 z m -2.649124,-0.07972 0.42798,0.04086 0.1274,-0.08096 0.127401,-0.08096 -0.555379,-0.0012 -0.55538,-0.0012 v 0.04173 0.04173 l 0.427978,0.04086 z m -1.860615,0.07434 0.681296,0.01 0.06456,-0.104454 0.06455,-0.104454 H 39.62709 38.939476 l -0.05824,0.09421 -0.05824,0.09421 0.681295,0.01 z m -2.062727,-0.03086 0.947173,0.0087 0.122808,-0.07584 0.122809,-0.07584 -1.070229,-0.01687 -1.070228,-0.01687 2.11e-4,0.08359 2.11e-4,0.08359 0.947173,0.0087 z m -1.317927,0.03161 0.211574,0.0087 -0.15868,-0.102579 -0.15868,-0.10258 -0.31736,0.0087 -0.31736,0.0087 0.264466,0.08471 0.264467,0.08471 0.211573,0.0087 z"
       style="fill:#ffffff;fill-opacity:1;stroke-width:0.999998"
       id="path27352" />
    <path
       d="m 76.090589,73.183975 10.181965,-0.04735 v 0.07896 0.07896 l -9.899665,0.05623 m 23.854461,18.26082 -0.573011,-0.0159 -0.29091,-0.0441 -0.29092,-0.0441 v -0.10244 -0.10245 l 0.55538,0.0665 0.555381,0.0665 0.251,0.0382 0.251,0.0382 0.0575,0.0576 0.0576,0.0576 z m -5.439194,-0.10882 -1.057867,0.002 -0.113975,-0.0472 -0.113974,-0.0472 -0.99679,-0.0973 -0.99679,-0.0973 1.163653,0.0727 1.163653,0.0727 1.249446,8.5e-4 1.249444,8.3e-4 -0.244472,0.0688 -0.244473,0.0688 -1.057865,0.002 z m 6.103964,0.0157 -0.0741,-0.004 0.21158,-0.12495 0.21157,-0.12494 0.97853,0.025 0.97852,0.025 0.29092,0.0201 0.29091,0.0201 0.50249,-0.0821 0.50248,-0.0821 v 0.10383 0.10382 l -0.71077,0.0761 -0.71077,0.0761 -0.65789,-0.13076 -0.65788,-0.13077 -0.54071,0.11595 -0.54071,0.11595 -0.0741,-0.004 z m -2.036471,-0.1162 -0.15339,-0.0136 -0.63472,-0.14218 -0.63472,-0.14217 0.6734,0.041 0.6734,0.041 0.11472,0.1147 0.11471,0.1147 z m -1.95176,-0.11283 -0.317362,-0.004 0.18714,-0.0487 0.187142,-0.0487 0.13022,0.0527 0.13022,0.0527 z m -8.857784,-2.10692 -0.345652,-0.0125 -0.423147,-0.098 -0.423146,-0.098 -0.370254,-0.0816 -0.370252,-0.0816 -0.26447,0.0772 -0.26446,0.0772 -0.4496,0.0515 -0.44959,0.0515 v -0.0842 -0.0842 l 0.23802,-0.0562 0.23802,-0.0562 0.7934,-0.0698 0.793399,-0.0698 0.31736,0.16687 0.31736,0.16687 0.775775,6.4e-4 0.775773,6.3e-4 0.84764,-0.21643 0.847639,-0.21641 0.386532,0.12959 0.386531,0.12959 0.846294,0.003 0.846292,0.002 0.740507,-0.0845 0.740506,-0.0845 0.185054,0.14197 0.185055,0.14196 -1.646235,0.0299 -1.646231,0.0299 -0.63089,-0.11445 -0.630889,-0.11445 -1.000344,0.21673 -1.000346,0.21673 -0.345651,-0.0125 z m 15.681015,-0.14409 -0.89918,0.042 -0.47604,-0.11207 -0.47604,-0.11208 -0.12828,-0.10495 -0.12828,-0.10496 -0.61223,-0.0552 -0.61222,-0.0552 -0.721101,0.18122 -0.7211,0.18121 -0.0513,-0.0512 -0.0512,-0.0512 0.34921,-0.12758 0.3492,-0.12758 0.909781,-0.0571 0.90977,-0.0571 0.51835,0.16488 0.51834,0.16487 0.53946,0.10883 0.53947,0.10883 0.72997,-0.10995 0.72998,-0.10995 0.42315,-0.13631 0.42314,-0.1363 0.58183,0.0469 0.58183,0.0468 0.45329,0.15106 0.45329,0.15106 h 0.36655 0.36656 v 0.0817 0.0817 l -0.66117,-0.0658 -0.66116,-0.0658 -0.76812,-0.1374 -0.76811,-0.13741 -0.55422,0.18107 -0.55422,0.18107 z m -15.127481,-2.56682 -0.47604,0.0281 -0.502007,-0.0591 -0.502007,-0.0591 -0.132712,-0.13979 -0.132713,-0.13977 0.528933,0.0805 0.528932,0.0805 0.7934,-0.02 0.793399,-0.02 0.687614,-0.0988 0.687613,-0.0988 0.476039,0.014 0.47604,0.014 -0.634719,0.0727 -0.63472,0.0727 -0.740507,0.12232 -0.740505,0.12232 z m 5.333408,-0.0376 -0.431963,0.01 -0.05782,-0.0579 -0.05783,-0.0579 -0.779655,-0.15123 -0.779655,-0.15125 0.846293,0.075 0.846293,0.075 0.95208,-0.001 0.952079,-0.001 -0.528934,0.12551 -0.528932,0.12551 -0.431962,0.01 z m -7.925183,-0.11045 h -0.42314 l 0.21157,-0.091 0.21157,-0.091 h 0.423149 0.423147 l -0.211574,0.091 -0.211573,0.091 z m 9.732371,-0.21733 -0.31736,-0.004 0.18714,-0.0487 0.187139,-0.0487 0.130221,0.0527 0.13022,0.0527 z m 2.484594,-0.13912 -1.995836,10e-4 0.231661,-0.09 0.23166,-0.09 1.216545,0.0521 1.21655,0.0521 0.5761,-0.0913 0.576111,-0.0913 0.0498,0.0498 0.0498,0.0499 -0.0783,0.0782 -0.0783,0.0782 -1.995831,10e-4 z m -19.0931,-2.18242 h -0.21157 l 0.21157,-0.091 0.21158,-0.091 h 0.21157 0.21157 l -0.21157,0.091 -0.21157,0.091 z m 2.93558,0.001 -0.0793,-0.0137 -0.79339,-0.0956 -0.79341,-0.0956 -0.23802,0.0417 -0.23802,0.0417 v -0.10671 -0.1067 l 0.80936,0.0683 0.80937,0.0685 h 0.3014 0.30139 v 0.10583 0.10583 z m 0.92563,-0.10825 h -0.26446 l 0.13223,-0.0534 0.13223,-0.0533 0.13224,0.0533 0.13223,0.0534 z m 2.371395,0.009 -0.62591,-0.007 -0.21157,-0.0926 -0.21157,-0.0926 0.7934,0.0619 0.7934,0.0619 0.0441,0.0382 0.0441,0.0382 -0.62591,-0.008 z m 0.84629,-9.5e-4 -0.20276,-0.009 0.138847,-0.0556 0.138845,-0.0556 0.06391,0.0638 0.06391,0.064 -0.202758,-0.009 z m 2.934302,-0.01 -0.922769,0.0294 -0.06111,-0.0611 -0.06112,-0.0611 -0.464202,-0.0987 -0.464201,-0.0987 0.740506,0.069 0.740506,0.069 0.65222,0.006 0.65222,0.006 0.05536,0.0552 0.05536,0.0552 -0.922766,0.0294 z m -5.155822,-0.0956 -0.20276,-0.009 0.13885,-0.0556 0.13884,-0.0556 0.0639,0.064 0.0639,0.0639 -0.20275,-0.009 z m 2.812162,-0.009 H 86.5368 l 0.132233,-0.0533 0.132233,-0.0534 0.132234,0.0534 0.132233,0.0533 z m 13.064643,-0.11608 -0.52893,0.007 -0.50195,-0.17453 -0.50194,-0.17454 -5.3e-4,-0.0617 -5.3e-4,-0.0617 0.18513,0.0199 0.18512,0.0199 0.31736,0.0828 0.31736,0.0827 0.10713,0.0833 0.10713,0.0833 0.4218,0.043 0.421811,0.043 -0.528941,0.007 z m -3.147149,-0.0794 -0.02645,-0.001 -0.158679,-0.10258 -0.15868,-0.10258 0.185125,-0.001 0.185127,-0.001 v 0.10583 0.10583 l -0.02645,-0.001 z m 7.82821,-0.01 -0.23802,-0.0113 -0.38804,-0.12119 -0.38804,-0.1212 -0.0576,-0.0577 -0.0576,-0.0577 0.23406,0.0113 0.23407,0.0112 0.44959,0.12977 0.44959,0.12977 v 0.0488 0.0489 z m -7.272831,-0.10932 h -0.26447 l 0.21158,-0.091 0.21157,-0.091 h 0.26447 0.26446 l -0.21157,0.091 -0.21157,0.091 z m 4.063971,0.006 -0.20276,-0.009 0.13885,-0.0556 0.13884,-0.0556 0.0639,0.0639 0.0639,0.064 -0.20275,-0.009 z m 4.1962,0.006 -0.25565,10e-4 0.0441,-0.0377 0.0441,-0.0377 0.37026,-0.068 0.37025,-0.068 -0.15868,0.10396 -0.15868,0.10408 -0.25565,10e-4 z m 2.09504,-0.057 -0.0587,0.0586 -0.0787,-0.0787 -0.0787,-0.0787 -0.60005,-0.0644 -0.60005,-0.0643 0.58182,-0.014 0.58183,-0.014 0.15562,0.0985 0.15561,0.0985 z m -19.347071,-2.18743 h -0.370254 l 0.185127,-0.0483 0.185127,-0.0483 0.185126,0.0483 0.185127,0.0483 z m -2.600585,-0.0895 -0.20276,-0.009 0.13885,-0.0556 0.13884,-0.0556 0.0639,0.064 0.0639,0.0639 -0.20276,-0.009 z m 1.807186,-0.0184 -0.423147,-0.002 0.239253,-0.046 0.239253,-0.046 0.183894,0.0481 0.183892,0.0481 -0.423145,-0.002 z m 2.318489,0.0184 -0.202758,-0.009 0.138845,-0.0556 0.138845,-0.0556 0.06391,0.064 0.06391,0.0639 -0.202757,-0.009 z m 0.577419,-0.13513 -0.35703,0.0681 0.06159,-0.068 0.06159,-0.068 0.493793,-0.0922 0.493792,-0.0922 v 0.0921 0.0921 h -0.19835 -0.19835 z m 2.393422,0.0131 -0.423147,-0.001 -0.447629,-0.073 -0.447627,-0.073 -0.07249,-0.0725 -0.07249,-0.0725 0.149864,0.007 0.149865,0.008 0.793399,0.13923 0.7934,0.13923 -0.423147,-0.001 z m 0.943264,0.0162 -0.202758,-0.009 0.138845,-0.0556 0.138845,-0.0556 0.06391,0.064 0.06391,0.0639 -0.202757,-0.009 z m 1.057865,0 -0.202757,-0.009 0.138844,-0.0556 0.138845,-0.0556 0.06391,0.064 0.06391,0.0639 -0.202758,-0.009 z m 0.908002,-0.11413 h -0.264466 l 0.132233,-0.0533 0.132233,-0.0533 0.132234,0.0533 0.132233,0.0533 z m 1.163648,10e-4 h -0.158675 l -0.211574,-0.091 -0.211572,-0.091 h 0.15868 0.158679 l 0.211573,0.091 0.211579,0.091 z m 0.47604,-0.006 -0.31735,-0.004 0.18714,-0.0487 0.18713,-0.0487 0.13023,0.0527 0.13022,0.0527 z m -22.1187,-1.043872 -0.62542,-0.0062 -0.25338,-0.10133 -0.25338,-0.101331 0.055,-0.0551 0.0551,-0.0551 0.64301,0.103579 0.64301,0.10358 0.86672,-0.207009 0.86673,-0.207009 0.0525,0.05248 0.0525,0.05248 -0.14738,0.04186 -0.14737,0.04186 -0.59113,0.172236 -0.59112,0.172224 -0.62542,-0.0062 z m 4.29366,-0.147597 -0.89919,0.04748 -0.21157,-0.09783 -0.21158,-0.09783 -0.3967,-0.0075 -0.39669,-0.0075 v -0.105828 -0.105829 l 0.18512,2.5e-5 0.18513,1.3e-5 0.80105,0.153282 0.80104,0.153295 0.67997,-0.105079 0.67996,-0.105078 0.42316,-0.04523 0.42315,-0.04535 -0.58183,0.160616 -0.58184,0.160617 z m 3.96699,-0.07309 -0.63472,-0.01125 -0.42314,-0.07097 -0.42315,-0.07097 -0.21156,-0.124195 -0.21157,-0.124196 0.0906,-0.0037 0.0906,-0.0037 0.93994,0.171961 0.939965,0.171974 0.92647,-0.179208 0.92647,-0.179196 0.47604,0.12557 0.476042,0.125582 0.687612,0.07659 0.687614,0.07659 -0.589073,0.01662 -0.589073,0.01662 -0.521682,-0.150846 -0.52169,-0.150833 -0.26447,0.03561 -0.26446,0.03561 -0.47604,0.112575 -0.47604,0.112575 -0.634725,-0.01125 z m 4.65462,-0.110576 -0.317359,-0.0037 0.187139,-0.04873 0.187139,-0.04873 0.130221,0.05273 0.13022,0.05273 -0.31736,-0.0037 z m -4.072785,-1.796769 -0.47604,-0.0037 -0.476045,-0.115449 -0.47604,-0.115449 -1.14103,-0.0012 -1.14105,-0.0012 0.24185,-0.09258 0.24186,-0.09258 1.16365,0.06435 1.16365,0.06435 0.899195,0.06497 0.89919,0.06497 -0.21158,0.08434 -0.21157,0.08434 -0.47604,-0.0037 z m 1.82482,-0.276265 -0.87274,0.153219 v -0.07496 -0.07559 l 0.50249,-0.06934 0.50248,-0.06934 0.554414,-0.117947 0.554411,-0.117948 0.873708,0.139313 0.873708,0.139301 0.846294,0.07672 0.846292,0.07672 -0.95208,-0.02711 -0.952079,-0.02711 -0.31736,-0.07634 -0.31736,-0.07634 -0.634719,-0.0025 -0.63472,-0.0025 -0.872739,0.15322 z m 8.092675,-0.005 -0.132233,0.04011 -0.528934,-0.0651 -0.528932,-0.0651 0.661166,-0.01662 0.661166,-0.01662 v 0.04161 0.04161 z m 0.502487,0.06759 -0.31736,-0.0037 0.18714,-0.04873 0.187138,-0.04873 0.130222,0.05273 0.13022,0.05273 -0.31736,-0.0037 z m -3.332278,-0.109702 h -0.370254 l 0.185127,-0.04835 0.185127,-0.04835 0.185125,0.04835 0.185127,0.04835 z m 0.927554,-0.05035 -0.500565,0.04848 0.05721,-0.09258 0.05721,-0.09258 0.549137,0.0087 0.549137,0.0087 -0.105791,0.03574 -0.105791,0.03573 -0.500565,0.04848 z m 3.665347,0.06647 -0.202758,-0.0087 0.138845,-0.0556 0.138845,-0.0556 0.06391,0.06397 0.06391,0.06397 -0.202758,-0.0087 z m -18.76831,-1.512123 -0.26447,0.0686 0.12481,-0.133916 0.12481,-0.133903 0.27173,-0.04061 0.27173,-0.04061 0.76668,-0.09496 0.76667,-0.09496 0.0533,0.06997 0.0533,0.06997 0.13224,0.01 0.13223,0.01 0.31736,0.01587 0.31736,0.01587 v 0.105828 0.105828 h -0.22575 -0.22574 l -0.41386,-0.123945 -0.41385,-0.123945 -0.76208,0.122696 -0.76207,0.122695 z m 3.56044,-0.06552 h -0.38684 v -0.108327 -0.108327 l 0.37154,0.04098 0.37156,0.04098 0.4483,-0.09508 0.4483,-0.09508 0.84628,-0.135091 0.84629,-0.13509 0.476045,0.09771 0.47604,0.09771 0.74051,0.07846 0.74051,0.07847 -0.69642,0.01549 -0.69642,0.01549 -0.59288,-0.119073 -0.592895,-0.119072 -1.20654,0.224851 -1.20654,0.22485 z m 9.662889,-0.06597 -0.476039,0.06197 -0.15868,-0.102205 -0.15868,-0.102205 0.678797,-0.0012 0.678797,-0.0012 -0.04408,0.04173 -0.04408,0.04173 -0.47604,0.06197 z m -3.775628,-0.04136 -0.231777,0.0012 -0.06538,-0.105828 -0.0654,-0.105829 0.138473,0.0012 0.138477,0.0012 0.15868,0.10258 0.15868,0.10258 -0.231777,0.0012 z m 2.798056,0.0012 h -0.173594 l -0.07473,-0.120947 -0.07473,-0.120946 -1.121616,0.05673 -1.121618,0.05673 0.476039,-0.09921 0.47604,-0.09921 0.763548,0.03299 0.763546,0.03298 0.130351,0.130355 0.130349,0.130355 h -0.173593 z m 5.050356,-0.02062 -0.31736,-0.0037 0.18714,-0.04873 0.18714,-0.04873 0.13022,0.05273 0.13022,0.05273 -0.31736,-0.0037 z m -2.697559,-0.159854 -0.793399,0.0586 0.31736,-0.08521 0.317359,-0.08521 0.520118,-0.01249 0.520118,-0.0125 -0.04408,0.03911 -0.04408,0.03911 z m 2.207415,0.07472 h -0.162207 l -0.06936,-0.06934 -0.06936,-0.06934 -0.397869,-0.08546 -0.397868,-0.08546 0.511687,0.03711 0.511686,0.03711 0.117748,0.117698 0.117748,0.117698 z m 1.539195,-0.0087 -0.202758,-0.0087 0.138845,-0.0556 0.138845,-0.0556 0.06391,0.06397 0.06391,0.06397 -0.202757,-0.0087 z m 0.855108,-0.0125 -0.31736,-0.0037 0.18714,-0.04873 0.187139,-0.04873 0.13022,0.05273 0.13022,0.05273 -0.317359,-0.0037 z m -19.358952,-0.899325 -0.63472,0.0546 -0.63472,-0.210382 -0.63472,-0.210369 -0.89919,0.07484 -0.89918,0.07497 -0.47604,0.03524 -0.47604,0.03523 -0.18513,-0.05622 -0.18512,-0.05622 v -0.142362 -0.142362 l 0.30674,0.115824 0.30675,0.115823 1.20071,-0.113699 1.20071,-0.1137 0.8559,0.221352 0.8559,0.221365 0.88958,-0.137952 0.88958,-0.137951 0.95208,-0.0037 0.95208,-0.0037 0.37025,0.08634 0.37027,0.08634 -0.26448,0.06785 -0.26447,0.06785 -0.35753,-0.146623 -0.35752,-0.146635 -0.70034,0.04935 -0.70034,0.04935 -0.42315,0.105329 -0.42314,0.105328 -0.63472,0.0546 z m 4.86619,-0.1039 -0.42314,0.0516 -0.13224,-0.05173 -0.13223,-0.05173 v -0.07334 -0.07334 l 0.44959,-0.005 0.4496,-0.005 1.20419,-0.136789 1.204205,-0.13679 0.38806,0.116324 0.38806,0.116323 0.78794,0.06447 0.787932,0.06435 0.05289,0.05797 0.05289,0.05797 -1.004972,-0.08334 -1.00497,-0.08334 -1.04569,-0.02649 -1.045695,-0.02649 -0.27664,0.08659 -0.27665,0.08659 z m 5.492085,-0.148297 -0.202758,-0.0087 0.138845,-0.0556 0.138845,-0.0556 0.06391,0.06397 0.06391,0.06385 -0.202758,-0.0087 z m 2.865054,0.0087 h -0.15868 v -0.105828 -0.105828 h 0.15868 0.15868 v 0.105828 0.105828 z m 0.890371,-0.0012 -0.361438,-0.0012 -0.15868,-0.105703 -0.15868,-0.105703 0.47604,0.06909 0.47604,0.0691 0.04408,0.03823 0.04408,0.03811 -0.361437,-0.0012 z m 2.821826,-0.05123 h -0.254851 l -0.379919,-0.08984 -0.379918,-0.08984 v -0.09533 -0.09533 h 0.152436 0.152437 l 0.06538,0.105828 0.06538,0.105829 h 0.416903 0.416904 v 0.07934 0.07934 z m 0.889521,0.02824 -0.47604,3.25e-4 0.423146,-0.08759 0.423146,-0.08746 0.370253,0.0062 0.370254,0.0062 -0.31736,0.08071 -0.31736,0.08071 -0.476039,3.13e-4 z m -6.823236,-0.08434 h -0.105791 l 0.15868,-0.102579 0.15868,-0.10258 h 0.10579 0.105791 l -0.15868,0.10258 -0.15868,0.102579 z m 1.586799,-0.02349 -0.423147,-0.0025 0.239253,-0.04598 0.239253,-0.04598 0.183894,0.0481 0.183892,0.0481 -0.423145,-0.0025 z m 2.327304,0.0062 -0.31736,-0.005 0.31736,-0.08071 0.31736,-0.08071 0.211574,-0.005 0.211573,-0.005 -0.211573,0.09096 -0.211574,0.09096 -0.31736,-0.005 z m -3.120704,-0.110326 h -0.370254 l 0.185127,-0.04835 0.185127,-0.04835 0.185126,0.04835 0.185127,0.04835 z m 7.616636,0.0075 h -0.264467 l 0.132233,-0.05335 0.132234,-0.05335 0.132233,0.05335 0.132232,0.05335 z M 86.69548,73.323627 h -0.253888 l 0.126944,-0.126944 0.126944,-0.126944 0.126944,0.126944 0.126944,0.126944 z m 2.106441,-0.0075 -1.273955,0.01 0.06605,-0.106828 0.06603,-0.106828 1.501217,0.0087 1.501216,0.0087 -0.293302,0.08821 -0.293303,0.08821 -1.273952,0.01 z m 2.649124,-0.07972 -0.42798,0.04086 -0.1274,-0.08096 -0.127401,-0.08096 0.555379,-0.0012 0.55538,-0.0012 v 0.04173 0.04173 l -0.427978,0.04086 z m 1.860615,0.07434 -0.681296,0.01 -0.06456,-0.104454 -0.06455,-0.104454 h 0.687613 0.687614 l 0.05824,0.09421 0.05824,0.09421 -0.681295,0.01 z m 2.062727,-0.03086 -0.947173,0.0087 -0.122808,-0.07584 -0.122809,-0.07584 1.070229,-0.01687 1.070228,-0.01687 -2.11e-4,0.08359 -2.11e-4,0.08359 -0.947173,0.0087 z m 1.317927,0.03161 -0.211574,0.0087 0.15868,-0.102579 0.15868,-0.10258 0.317359,0.0087 0.31736,0.0087 -0.26446,0.08471 -0.26447,0.08471 -0.211575,0.0087 z"
       style="fill:#ffffff;fill-opacity:1;stroke-width:0.999998"
       id="path27352-5" />
    <path
       d="m 101.34573,73.187119 10.18197,-0.04735 v 0.07896 0.07896 l -9.89967,0.05623 m 23.85446,18.260822 -0.57301,-0.0159 -0.29091,-0.0441 -0.29092,-0.0441 v -0.10244 -0.10245 l 0.55538,0.0665 0.55538,0.0665 0.251,0.0382 0.251,0.0382 0.0575,0.0576 0.0576,0.0576 z m -5.43919,-0.10882 -1.05787,0.002 -0.11397,-0.0472 -0.11398,-0.0472 -0.99679,-0.0973 -0.99679,-0.0973 1.16366,0.0727 1.16365,0.0727 1.24945,8.5e-4 1.24944,8.3e-4 -0.24447,0.0688 -0.24448,0.0688 -1.05786,0.002 z m 6.10396,0.0157 -0.0741,-0.004 0.21158,-0.12495 0.21157,-0.12494 0.97853,0.025 0.97852,0.025 0.29092,0.0201 0.29091,0.0201 0.50249,-0.0821 0.50248,-0.0821 v 0.10383 0.10382 l -0.71077,0.0761 -0.71077,0.0761 -0.65789,-0.13076 -0.65788,-0.13077 -0.54071,0.11595 -0.54071,0.11595 -0.0741,-0.004 z m -2.03647,-0.1162 -0.15339,-0.0136 -0.63472,-0.14218 -0.63472,-0.14217 0.6734,0.041 0.6734,0.041 0.11472,0.1147 0.11471,0.1147 z m -1.95176,-0.11283 -0.31736,-0.004 0.18714,-0.0487 0.18714,-0.0487 0.13022,0.0527 0.13022,0.0527 z m -8.85778,-2.106922 -0.34565,-0.0125 -0.42315,-0.098 -0.42315,-0.098 -0.37025,-0.0816 -0.37025,-0.0816 -0.26447,0.0772 -0.26446,0.0772 -0.4496,0.0515 -0.44959,0.0515 v -0.0842 -0.0842 l 0.23802,-0.0562 0.23802,-0.0562 0.7934,-0.0698 0.7934,-0.0698 0.31736,0.16687 0.31736,0.16687 0.77577,6.4e-4 0.77578,6.3e-4 0.84764,-0.21643 0.84763,-0.21641 0.38654,0.12959 0.38653,0.12959 0.84629,0.003 0.84629,0.002 0.74051,-0.0845 0.74051,-0.0845 0.18505,0.14197 0.18506,0.14196 -1.64624,0.0299 -1.64623,0.0299 -0.63089,-0.11445 -0.63089,-0.11445 -1.00034,0.21673 -1.00035,0.21673 -0.34565,-0.0125 z m 15.68101,-0.14409 -0.89918,0.042 -0.47604,-0.11207 -0.47604,-0.11208 -0.12828,-0.10495 -0.12828,-0.10496 -0.61223,-0.0552 -0.61222,-0.0552 -0.7211,0.18122 -0.7211,0.18121 -0.0513,-0.0512 -0.0512,-0.0512 0.34921,-0.12758 0.3492,-0.12758 0.90978,-0.0571 0.90977,-0.0571 0.51835,0.16488 0.51834,0.16487 0.53946,0.10883 0.53947,0.10883 0.72997,-0.10995 0.72998,-0.10995 0.42315,-0.13631 0.42314,-0.1363 0.58183,0.0469 0.58183,0.0468 0.45329,0.15106 0.45329,0.15106 h 0.36655 0.36656 v 0.0817 0.0817 l -0.66117,-0.0658 -0.66116,-0.0658 -0.76812,-0.1374 -0.76811,-0.13741 -0.55422,0.18107 -0.55422,0.18107 z m -15.12748,-2.56682 -0.47604,0.0281 -0.502,-0.0591 -0.50201,-0.0591 -0.13271,-0.13979 -0.13272,-0.13977 0.52894,0.0805 0.52893,0.0805 0.7934,-0.02 0.7934,-0.02 0.68761,-0.0988 0.68761,-0.0988 0.47604,0.014 0.47604,0.014 -0.63472,0.0727 -0.63472,0.0727 -0.7405,0.12232 -0.74051,0.12232 z m 5.33341,-0.0376 -0.43196,0.01 -0.0578,-0.0579 -0.0578,-0.0579 -0.77966,-0.15123 -0.77965,-0.15125 0.84629,0.075 0.84629,0.075 0.95208,-10e-4 0.95208,-0.001 -0.52893,0.12551 -0.52893,0.12551 -0.43196,0.01 z m -7.92518,-0.11045 h -0.42314 l 0.21157,-0.091 0.21157,-0.091 h 0.42314 0.42315 l -0.21157,0.091 -0.21158,0.091 z m 9.73237,-0.21733 -0.31736,-0.004 0.18714,-0.0487 0.18714,-0.0487 0.13022,0.0527 0.13022,0.0527 z m 2.48459,-0.13912 -1.99583,0.001 0.23166,-0.09 0.23166,-0.09 1.21654,0.0521 1.21655,0.0521 0.5761,-0.0913 0.57611,-0.0913 0.0498,0.0498 0.0498,0.0499 -0.0783,0.0782 -0.0783,0.0782 -1.99583,0.001 z m -19.0931,-2.18242 h -0.21157 l 0.21157,-0.091 0.21158,-0.091 h 0.21157 0.21157 l -0.21157,0.091 -0.21157,0.091 z m 2.93558,10e-4 -0.0793,-0.0137 -0.79339,-0.0956 -0.79341,-0.0956 -0.23802,0.0417 -0.23802,0.0417 v -0.10671 -0.1067 l 0.80936,0.0683 0.80937,0.0685 h 0.3014 0.30139 v 0.10583 0.10583 z m 0.92563,-0.10825 h -0.26446 l 0.13223,-0.0534 0.13223,-0.0533 0.13224,0.0533 0.13223,0.0534 z m 2.3714,0.009 -0.62591,-0.007 -0.21157,-0.0926 -0.21157,-0.0926 0.7934,0.0619 0.7934,0.0619 0.0441,0.0382 0.0441,0.0382 -0.62591,-0.008 z m 0.84629,-9.5e-4 -0.20276,-0.009 0.13884,-0.0556 0.13885,-0.0556 0.0639,0.0638 0.0639,0.064 -0.20276,-0.009 z m 2.9343,-0.01 -0.92277,0.0294 -0.0611,-0.0611 -0.0611,-0.0611 -0.4642,-0.0987 -0.4642,-0.0987 0.7405,0.069 0.74051,0.069 0.65222,0.006 0.65222,0.006 0.0554,0.0552 0.0554,0.0552 -0.92277,0.0294 z m -5.15582,-0.0956 -0.20276,-0.009 0.13885,-0.0556 0.13884,-0.0556 0.0639,0.064 0.0639,0.0639 -0.20275,-0.009 z m 2.81216,-0.009 h -0.26447 l 0.13224,-0.0533 0.13223,-0.0534 0.13223,0.0534 0.13224,0.0533 z m 13.06464,-0.11608 -0.52893,0.007 -0.50195,-0.17453 -0.50194,-0.17454 -5.3e-4,-0.0617 -5.3e-4,-0.0617 0.18513,0.0199 0.18512,0.0199 0.31736,0.0828 0.31736,0.0827 0.10713,0.0833 0.10713,0.0833 0.4218,0.043 0.42181,0.043 -0.52894,0.007 z m -3.14715,-0.0794 -0.0264,-10e-4 -0.15867,-0.10258 -0.15868,-0.10258 0.18512,-0.001 0.18513,-10e-4 v 0.10583 0.10583 l -0.0264,-0.001 z m 7.82821,-0.01 -0.23802,-0.0113 -0.38804,-0.12119 -0.38804,-0.1212 -0.0576,-0.0577 -0.0576,-0.0577 0.23406,0.0113 0.23407,0.0112 0.44959,0.12977 0.44959,0.12977 v 0.0488 0.0489 z m -7.27283,-0.10932 h -0.26447 l 0.21158,-0.091 0.21157,-0.091 h 0.26447 0.26446 l -0.21157,0.091 -0.21157,0.091 z m 4.06397,0.006 -0.20276,-0.009 0.13885,-0.0556 0.13884,-0.0556 0.0639,0.0639 0.0639,0.064 -0.20275,-0.009 z m 4.1962,0.006 -0.25565,0.001 0.0441,-0.0377 0.0441,-0.0377 0.37026,-0.068 0.37025,-0.068 -0.15868,0.10396 -0.15868,0.10408 -0.25565,0.001 z m 2.09504,-0.057 -0.0587,0.0586 -0.0787,-0.0787 -0.0787,-0.0787 -0.60005,-0.0644 -0.60005,-0.0643 0.58182,-0.014 0.58183,-0.014 0.15562,0.0985 0.15561,0.0985 z m -19.34707,-2.18743 h -0.37025 l 0.18513,-0.0483 0.18512,-0.0483 0.18513,0.0483 0.18513,0.0483 z m -2.60058,-0.0895 -0.20276,-0.009 0.13885,-0.0556 0.13884,-0.0556 0.0639,0.064 0.0639,0.0639 -0.20276,-0.009 z m 1.80718,-0.0184 -0.42314,-0.002 0.23925,-0.046 0.23925,-0.046 0.1839,0.0481 0.18389,0.0481 -0.42315,-0.002 z m 2.31849,0.0184 -0.20275,-0.009 0.13884,-0.0556 0.13885,-0.0556 0.0639,0.064 0.0639,0.0639 -0.20276,-0.009 z m 0.57742,-0.13513 -0.35703,0.0681 0.0616,-0.068 0.0616,-0.068 0.4938,-0.0922 0.49379,-0.0922 v 0.0921 0.0921 h -0.19835 -0.19835 z m 2.39342,0.0131 -0.42314,-0.001 -0.44763,-0.073 -0.44763,-0.073 -0.0725,-0.0725 -0.0725,-0.0725 0.14987,0.007 0.14986,0.008 0.7934,0.13923 0.7934,0.13923 -0.42315,-0.001 z m 0.94327,0.0162 -0.20276,-0.009 0.13885,-0.0556 0.13884,-0.0556 0.0639,0.064 0.0639,0.0639 -0.20276,-0.009 z m 1.05786,0 -0.20275,-0.009 0.13884,-0.0556 0.13885,-0.0556 0.0639,0.064 0.0639,0.0639 -0.20276,-0.009 z m 0.90801,-0.11413 h -0.26447 l 0.13223,-0.0533 0.13224,-0.0533 0.13223,0.0533 0.13223,0.0533 z m 1.16364,0.001 h -0.15867 l -0.21158,-0.091 -0.21157,-0.091 h 0.15868 0.15868 l 0.21157,0.091 0.21158,0.091 z m 0.47604,-0.006 -0.31735,-0.004 0.18714,-0.0487 0.18713,-0.0487 0.13023,0.0527 0.13022,0.0527 z m -22.1187,-1.043872 -0.62542,-0.0062 -0.25338,-0.10133 -0.25338,-0.101331 0.055,-0.0551 0.0551,-0.0551 0.64301,0.103579 0.64301,0.10358 0.86672,-0.207009 0.86673,-0.207009 0.0525,0.05248 0.0525,0.05248 -0.14738,0.04186 -0.14737,0.04186 -0.59113,0.172236 -0.59112,0.172224 -0.62542,-0.0062 z m 4.29366,-0.147597 -0.89919,0.04748 -0.21157,-0.09783 -0.21158,-0.09783 -0.3967,-0.0075 -0.39669,-0.0075 v -0.105828 -0.105829 l 0.18512,2.5e-5 0.18513,1.3e-5 0.80105,0.153282 0.80104,0.153295 0.67997,-0.105079 0.67996,-0.105078 0.42316,-0.04523 0.42315,-0.04535 -0.58183,0.160616 -0.58184,0.160617 z m 3.96699,-0.07309 -0.63472,-0.01125 -0.42314,-0.07097 -0.42315,-0.07097 -0.21156,-0.124195 -0.21157,-0.124196 0.0906,-0.0037 0.0906,-0.0037 0.93994,0.171961 0.93997,0.171974 0.92647,-0.179208 0.92647,-0.179196 0.47604,0.12557 0.47604,0.125582 0.68761,0.07659 0.68762,0.07659 -0.58908,0.01662 -0.58907,0.01662 -0.52168,-0.150846 -0.52169,-0.150833 -0.26447,0.03561 -0.26446,0.03561 -0.47604,0.112575 -0.47604,0.112575 -0.63473,-0.01125 z m 4.65462,-0.110576 -0.31736,-0.0037 0.18714,-0.04873 0.18714,-0.04873 0.13022,0.05273 0.13022,0.05273 -0.31736,-0.0037 z m -4.07278,-1.796769 -0.47604,-0.0037 -0.47605,-0.115449 -0.47604,-0.115449 -1.14103,-0.0012 -1.14105,-0.0012 0.24185,-0.09258 0.24186,-0.09258 1.16365,0.06435 1.16365,0.06435 0.8992,0.06497 0.89919,0.06497 -0.21158,0.08434 -0.21157,0.08434 -0.47604,-0.0037 z m 1.82482,-0.276265 -0.87274,0.153219 v -0.07496 -0.07559 l 0.50249,-0.06934 0.50248,-0.06934 0.55441,-0.117947 0.55441,-0.117948 0.87371,0.139313 0.87371,0.139301 0.84629,0.07672 0.8463,0.07672 -0.95208,-0.02711 -0.95208,-0.02711 -0.31736,-0.07634 -0.31736,-0.07634 -0.63472,-0.0025 -0.63472,-0.0025 -0.87274,0.15322 z m 8.09267,-0.005 -0.13223,0.04011 -0.52893,-0.0651 -0.52894,-0.0651 0.66117,-0.01662 0.66117,-0.01662 v 0.04161 0.04161 z m 0.50249,0.06759 -0.31736,-0.0037 0.18714,-0.04873 0.18714,-0.04873 0.13022,0.05273 0.13022,0.05273 -0.31736,-0.0037 z m -3.33228,-0.109702 h -0.37025 l 0.18513,-0.04835 0.18512,-0.04835 0.18513,0.04835 0.18512,0.04835 z m 0.92756,-0.05035 -0.50057,0.04848 0.0572,-0.09258 0.0572,-0.09258 0.54914,0.0087 0.54914,0.0087 -0.1058,0.03574 -0.10579,0.03573 -0.50056,0.04848 z m 3.66534,0.06647 -0.20275,-0.0087 0.13884,-0.0556 0.13885,-0.0556 0.0639,0.06397 0.0639,0.06397 -0.20276,-0.0087 z m -18.76831,-1.512123 -0.26447,0.0686 0.12481,-0.133916 0.12481,-0.133903 0.27173,-0.04061 0.27173,-0.04061 0.76668,-0.09496 0.76667,-0.09496 0.0533,0.06997 0.0533,0.06997 0.13224,0.01 0.13223,0.01 0.31736,0.01587 0.31736,0.01587 v 0.105828 0.105828 h -0.22575 -0.22574 l -0.41386,-0.123945 -0.41385,-0.123945 -0.76208,0.122696 -0.76207,0.122695 z m 3.56044,-0.06552 h -0.38684 v -0.108327 -0.108327 l 0.37154,0.04098 0.37156,0.04098 0.4483,-0.09508 0.4483,-0.09508 0.84628,-0.135091 0.84629,-0.13509 0.47605,0.09771 0.47604,0.09771 0.74051,0.07846 0.74051,0.07847 -0.69642,0.01549 -0.69642,0.01549 -0.59288,-0.119073 -0.5929,-0.119072 -1.20654,0.224851 -1.20654,0.22485 z m 9.66289,-0.06597 -0.47604,0.06197 -0.15868,-0.102205 -0.15868,-0.102205 0.6788,-0.0012 0.6788,-0.0012 -0.0441,0.04173 -0.0441,0.04173 -0.47604,0.06197 z m -3.77563,-0.04136 -0.23178,0.0012 -0.0654,-0.105828 -0.0654,-0.105829 0.13848,0.0012 0.13847,0.0012 0.15868,0.10258 0.15869,0.10258 -0.23178,0.0012 z m 2.79806,0.0012 h -0.17359 l -0.0747,-0.120947 -0.0747,-0.120946 -1.12162,0.05673 -1.12162,0.05673 0.47604,-0.09921 0.47604,-0.09921 0.76355,0.03299 0.76355,0.03298 0.13035,0.130355 0.13035,0.130355 h -0.1736 z m 5.05036,-0.02062 -0.31736,-0.0037 0.18714,-0.04873 0.18714,-0.04873 0.13022,0.05273 0.13022,0.05273 -0.31736,-0.0037 z m -2.69756,-0.159854 -0.7934,0.0586 0.31736,-0.08521 0.31736,-0.08521 0.52012,-0.01249 0.52011,-0.0125 -0.0441,0.03911 -0.0441,0.03911 z m 2.20741,0.07472 h -0.1622 l -0.0694,-0.06934 -0.0694,-0.06934 -0.39787,-0.08546 -0.39787,-0.08546 0.51169,0.03711 0.51168,0.03711 0.11775,0.117698 0.11775,0.117698 z m 1.5392,-0.0087 -0.20276,-0.0087 0.13884,-0.0556 0.13885,-0.0556 0.0639,0.06397 0.0639,0.06397 -0.20276,-0.0087 z m 0.85511,-0.0125 -0.31736,-0.0037 0.18714,-0.04873 0.18713,-0.04873 0.13022,0.05273 0.13022,0.05273 -0.31735,-0.0037 z m -19.35896,-0.899325 -0.63472,0.0546 -0.63472,-0.210382 -0.63472,-0.210369 -0.89919,0.07484 -0.89918,0.07497 -0.47604,0.03524 -0.47604,0.03523 -0.18513,-0.05622 -0.18512,-0.05622 v -0.142362 -0.142362 l 0.30674,0.115824 0.30675,0.115823 1.20071,-0.113699 1.20071,-0.1137 0.8559,0.221352 0.8559,0.221365 0.88958,-0.137952 0.88958,-0.137951 0.95208,-0.0037 0.95208,-0.0037 0.37025,0.08634 0.37027,0.08634 -0.26448,0.06785 -0.26447,0.06785 -0.35753,-0.146623 -0.35752,-0.146635 -0.70034,0.04935 -0.70034,0.04935 -0.42315,0.105329 -0.42314,0.105328 -0.63472,0.0546 z m 4.86619,-0.1039 -0.42314,0.0516 -0.13224,-0.05173 -0.13223,-0.05173 v -0.07334 -0.07334 l 0.44959,-0.005 0.4496,-0.005 1.20419,-0.136789 1.20421,-0.13679 0.38806,0.116324 0.38806,0.116323 0.78794,0.06447 0.78793,0.06435 0.0529,0.05797 0.0529,0.05797 -1.00497,-0.08334 -1.00497,-0.08334 -1.04569,-0.02649 -1.0457,-0.02649 -0.27664,0.08659 -0.27665,0.08659 z m 5.49209,-0.148297 -0.20276,-0.0087 0.13885,-0.0556 0.13884,-0.0556 0.0639,0.06397 0.0639,0.06385 -0.20276,-0.0087 z m 2.86505,0.0087 h -0.15868 v -0.105828 -0.105828 h 0.15868 0.15868 v 0.105828 0.105828 z m 0.89037,-0.0012 -0.36143,-0.0012 -0.15868,-0.105703 -0.15868,-0.105703 0.47604,0.06909 0.47604,0.0691 0.0441,0.03823 0.0441,0.03811 -0.36143,-0.0012 z m 2.82183,-0.05123 h -0.25485 l -0.37992,-0.08984 -0.37992,-0.08984 v -0.09533 -0.09533 h 0.15244 0.15243 l 0.0654,0.105828 0.0654,0.105829 h 0.41691 0.4169 v 0.07934 0.07934 z m 0.88952,0.02824 -0.47604,3.25e-4 0.42315,-0.08759 0.42314,-0.08746 0.37026,0.0062 0.37025,0.0062 -0.31736,0.08071 -0.31736,0.08071 -0.47604,3.13e-4 z m -6.82324,-0.08434 h -0.10579 l 0.15868,-0.102579 0.15868,-0.10258 h 0.10579 0.10579 l -0.15868,0.10258 -0.15868,0.102579 z m 1.5868,-0.02349 -0.42314,-0.0025 0.23925,-0.04598 0.23925,-0.04598 0.1839,0.0481 0.18389,0.0481 -0.42315,-0.0025 z m 2.32731,0.0062 -0.31736,-0.005 0.31736,-0.08071 0.31736,-0.08071 0.21157,-0.005 0.21157,-0.005 -0.21157,0.09096 -0.21157,0.09096 -0.31736,-0.005 z m -3.12071,-0.110326 h -0.37025 l 0.18513,-0.04835 0.18512,-0.04835 0.18513,0.04835 0.18513,0.04835 z m 7.61664,0.0075 h -0.26447 l 0.13224,-0.05335 0.13223,-0.05335 0.13223,0.05335 0.13223,0.05335 z m -9.5208,-0.724222 h -0.25389 l 0.12695,-0.126944 0.12694,-0.126944 0.12695,0.126944 0.12694,0.126944 z m 2.10645,-0.0075 -1.27396,0.01 0.0661,-0.106828 0.066,-0.106828 1.50122,0.0087 1.50121,0.0087 -0.2933,0.08821 -0.2933,0.08821 -1.27395,0.01 z m 2.64912,-0.07972 -0.42798,0.04086 -0.1274,-0.08096 -0.1274,-0.08096 0.55538,-0.0012 0.55538,-0.0012 v 0.04173 0.04173 l -0.42798,0.04086 z m 1.86061,0.07434 -0.68129,0.01 -0.0646,-0.104454 -0.0645,-0.104454 h 0.68761 0.68762 l 0.0582,0.09421 0.0582,0.09421 -0.68129,0.01 z m 2.06273,-0.03086 -0.94717,0.0087 -0.12281,-0.07584 -0.12281,-0.07584 1.07023,-0.01687 1.07023,-0.01687 -2.1e-4,0.08359 -2.1e-4,0.08359 -0.94718,0.0087 z m 1.31793,0.03161 -0.21158,0.0087 0.15868,-0.102579 0.15868,-0.10258 0.31736,0.0087 0.31736,0.0087 -0.26446,0.08471 -0.26447,0.08471 -0.21157,0.0087 z"
       style="fill:#ffffff;fill-opacity:1;stroke-width:0.999998"
       id="path27352-5-5" />
    <path
       d="m 58.435468,83.247348 0.65896,0.09196 0.65895,0.09196 0.14495,-0.117199 0.14495,-0.117198 h 0.79245 0.79252 l -0.35564,-0.09333 -0.35564,-0.09333 -0.70456,0.124819 -0.70455,0.12482 -0.48685,-0.07297 -0.48685,-0.07297 m 6.190405,-9.74091 5.078645,0.114435 1.42812,-0.07522 1.42812,-0.07509 -0.31736,-0.02561 -0.31736,-0.02561 -0.89919,0.005 -0.89918,0.005 -2.75046,-0.0037 -2.75045,-0.0037 -0.0908,-0.09021 m -6.61072,22.048992 0.88292,0.05223 0.47604,-0.161279 0.47604,-0.161291 0.74051,0.06147 0.74051,0.06147 0.52893,0.0551 0.52894,0.0551 0.68761,-0.178746 0.68761,-0.178746 0.7934,-0.06635 0.7934,-0.06635 -0.35476,-0.08859 -0.35475,-0.08859 -0.86179,0.128169 -0.86179,0.128168 -0.26447,0.08459 -0.26446,0.08459 -0.47604,-0.02449 -0.47604,-0.02449 -0.62542,-0.135715 -0.62542,-0.135715 -0.32666,0.05473 -0.32667,0.05473 -0.31736,0.132754 -0.31736,0.132753 -0.95207,-0.02436 -0.95208,-0.02436 -0.21158,-0.0501 -0.21157,-0.04998 0.28073,0.160592 0.28073,0.160591 z m -5.04113,-0.0025 0.74051,0.04361 0.31736,-0.09996 0.31736,-0.09996 0.47604,-0.05473 0.47604,-0.05473 0.50249,-0.01412 0.50248,-0.01412 v -0.07572 -0.07572 l -0.29091,-0.04173 -0.29091,-0.04173 -0.95208,0.132967 -0.95208,0.132953 -0.42315,0.06485 -0.42315,0.06485 -0.71123,-0.09671 -0.71123,-0.09671 -0.11928,0.07372 -0.11929,0.07372 0.46026,0.06785 0.46026,0.06784 z m -4.34254,-0.05935 0.53423,-0.01312 0.48093,-0.132042 0.48093,-0.132054 0.50136,0.07609 0.50137,0.07609 0.0554,-0.08959 0.0554,-0.08958 -0.19137,-0.0087 -0.19137,-0.0087 -0.21158,-0.04136 -0.21157,-0.04136 -0.32981,-0.0656 -0.32982,-0.0656 -0.3261,0.168638 -0.3261,0.168626 h -0.51302 -0.51303 l -0.1005,-0.100206 -0.10049,-0.100206 -0.55077,-0.03199 -0.55077,-0.03199 -0.006,0.09933 -0.006,0.09933 0.5512,0.03286 0.5512,0.03286 0.10586,0.105828 0.10587,0.105828 0.53422,-0.01312 z m 17.67166,-0.12482 0.21157,0.05398 -0.20714,-0.157855 -0.20714,-0.157855 -0.12596,0.04835 -0.12597,0.04835 -0.0698,-0.11295 -0.0698,-0.11295 h -0.0995 -0.0995 v 0.103704 0.103829 l 0.29092,0.06472 0.29091,0.06472 z m -3.4821,-2.048611 0.62586,0.05997 0.58183,-0.218516 0.58183,-0.218516 0.52893,0.106578 0.52893,0.106703 0.0411,-0.03848 0.0411,-0.03836 -0.30558,-0.119073 -0.30559,-0.119072 -0.65327,0.05847 -0.65328,0.05847 -0.37864,0.158206 -0.37863,0.158205 -0.80222,-0.153483 -0.80221,-0.153494 h -0.40759 -0.40761 l -0.0605,0.09796 -0.0605,0.09796 0.55675,-0.02911 0.55675,-0.02911 0.27333,0.07747 0.27333,0.07746 z m 3.86117,-0.04336 0.89037,-0.0087 0.10819,-0.04536 0.10819,-0.04536 0.63232,-0.100956 0.63231,-0.100955 -0.68761,0.0631 -0.68761,0.0631 -0.88557,0.03386 -0.88558,0.03386 -0.0577,0.05772 -0.0577,0.05772 0.89037,-0.0087 z m 2.68874,-0.09728 h 0.15868 v -0.04161 -0.04161 l -0.15868,-0.06085 -0.15868,-0.06085 v 0.102455 0.102455 z m -3.33228,-2.348079 0.37026,0.0037 0.37025,-0.162678 0.37025,-0.162678 0.95208,0.05035 0.95208,0.05035 -0.31736,-0.07809 -0.31736,-0.07809 -0.85158,-0.01249 -0.85158,-0.0125 -0.12156,0.121571 -0.12157,0.121572 -0.40208,0.07784 -0.40208,0.07784 0.37026,0.0037 z m -1.22536,0.01337 0.30855,0.0075 -0.0441,-0.03811 -0.0441,-0.03823 -0.47604,-0.06297 -0.47604,-0.06297 0.21157,0.09371 0.21157,0.09371 0.30855,0.0075 z m -2.94439,-0.005 0.20276,-0.01262 0.37025,-0.144661 0.37025,-0.144673 0.58183,0.04648 0.58183,0.04648 -0.26447,-0.09021 -0.26447,-0.09021 -0.42314,-0.0087 -0.42315,-0.0087 -0.39473,0.137489 -0.39472,0.137477 -0.0725,0.07247 -0.0725,0.07247 0.20276,-0.01262 z m -0.55763,0.005 0.23145,-0.0075 -0.7934,-0.197538 -0.7934,-0.197538 -0.42586,-0.02474 -0.42586,-0.02474 -0.20886,0.121946 -0.20886,0.121946 0.47604,-0.0601 0.47604,-0.0601 0.72062,0.1683 0.72063,0.168301 0.23146,-0.0075 z m -3.33885,-0.143188 0.55538,0.07247 v -0.119447 -0.119448 h -0.58878 -0.58878 l -0.20462,-0.109451 -0.20462,-0.109452 v 0.09808 0.09808 l 0.23802,0.05848 0.23802,0.05847 z m 11.85849,-2.599509 h 0.15711 l -0.0596,-0.0596 -0.0596,-0.0596 -0.51343,-0.135952 -0.51343,-0.13594 -0.26447,-0.08084 -0.26446,-0.08084 0.10579,0.108077 0.10579,0.108078 0.57458,0.168275 0.57458,0.168289 z m -4.16251,-0.130236 0.21157,-0.0037 0.58183,-0.08159 0.58183,-0.08159 0.63472,-0.160142 0.63472,-0.160154 -0.3915,-0.0087 -0.39149,-0.0087 -0.50769,0.106328 -0.5077,0.106328 -0.37025,0.04523 -0.37025,0.04523 -0.42315,0.01774 -0.42314,0.01774 0.26446,0.08471 0.26447,0.08471 0.21157,-0.0037 z m -0.8867,-0.18717 h 0.10579 l -0.0654,-0.105829 -0.0654,-0.105828 h -0.10579 -0.10579 l 0.0654,0.105828 0.0654,0.105829 z m -3.34476,-0.013 0.7405,-0.01287 0.83161,-0.139913 0.8316,-0.139913 0.0676,-0.07184 0.0676,-0.07184 -0.58182,0.05847 -0.58183,0.05848 -0.37025,0.08046 -0.37026,0.08047 -0.7405,0.0012 -0.74051,0.0012 -0.50619,-0.180395 -0.50618,-0.180408 h -0.40653 -0.40653 l -0.37978,0.15868 -0.37977,0.15868 -0.45299,0.0012 -0.45299,0.0012 0.15868,0.10258 0.15868,0.102579 0.28214,0.0012 0.28214,0.0012 0.49358,-0.211581 0.49358,-0.211569 h 0.30751 0.30745 l 0.55652,0.211519 0.55651,0.211519 0.74051,-0.01287 z m 2.80334,-0.215329 h 0.26447 l -0.13223,-0.05335 -0.13224,-0.05335 -0.13223,0.05335 -0.13223,0.05335 z m -7.37364,-0.09758 0.12726,-0.0087 -0.42315,-0.200237 -0.42315,-0.200237 -0.29431,-0.0025 -0.29431,-0.0025 -0.3831,0.160079 -0.38309,0.160067 0.0496,0.0496 0.0496,0.0496 0.66319,-0.116823 0.66319,-0.116824 0.26046,0.118698 0.26045,0.118697 0.12726,-0.0087 z m 8.99313,-3.494894 0.0202,-0.0125 0.31736,-0.08071 0.31736,-0.08071 -0.40294,-0.0125 -0.40295,-0.01249 0.0654,0.105828 0.0654,0.105828 z m 0.8665,-0.21602 0.21157,-0.01125 0.21157,-0.04323 0.21158,-0.04323 0.26446,-0.204485 0.26447,-0.204472 -0.15868,-0.0012 -0.15868,-0.0012 -0.52893,0.260185 -0.52894,0.260198 0.21158,-0.01125 z m -4.06397,-0.05273 0.0441,0.03536 0.34917,-0.07597 0.34918,-0.07597 0.074,-0.07921 0.074,-0.07922 -0.42315,0.07634 -0.42314,0.07634 -0.0441,0.04348 -0.0441,0.04348 z m -0.5113,0.0087 0.3967,0.07172 v -0.110572 -0.110576 h -0.44078 -0.44078 l 0.0441,0.03886 0.0441,0.03886 z m 2.61822,-0.0608 h 0.26446 l -0.13223,-0.05335 -0.13223,-0.05335 -0.13224,0.05335 -0.13223,0.05335 z m 4.01989,-0.1142 h 0.37025 l -0.18513,-0.04835 -0.18512,-0.04835 -0.18513,0.04835 -0.18513,0.04835 z m -0.54914,-0.0833 0.17888,-0.0012 -0.15868,-0.10258 -0.15868,-0.102579 -0.0856,-0.0012 -0.0856,-0.0012 0.0654,0.105828 0.0654,0.105828 0.17888,-0.0012 z m 0.65492,-2.334139 0.26447,0.125957 -0.20535,-0.164515 -0.20534,-0.164515 h -0.10321 -0.10319 l 0.0441,0.03861 0.0441,0.03861 z m -2.46829,-0.363879 1.81607,0.0011 -0.22178,-0.08296 -0.22177,-0.08296 -0.58932,-0.0616 -0.58932,-0.0616 -0.78375,0.121697 -0.78374,0.121571 -0.77904,-0.23126 -0.77903,-0.231273 -0.42284,0.139551 -0.42283,0.13955 -0.13012,-4.24e-4 -0.13011,-4.25e-4 -0.3967,-0.07484 -0.3967,-0.07484 v 0.09833 0.09833 l 0.57286,0.07159 0.57286,0.07159 0.44839,-0.120697 0.44838,-0.120697 0.48621,0.139539 0.48622,0.139538 1.81606,0.0011 z m 1.14596,-2.231487 0.63472,0.05298 0.62332,-0.141475 0.62332,-0.141475 0.32175,0.09234 0.32176,0.09233 0.0389,-0.03886 0.0389,-0.03886 -0.33854,-0.117948 -0.33855,-0.118073 h -0.33331 -0.33331 l -0.11512,0.115075 -0.11513,0.115074 h -0.74184 -0.74184 l -0.21511,-0.115074 -0.2151,-0.115075 -0.40366,0.0037 -0.40365,0.0037 -0.26447,0.151183 -0.26447,0.151184 0.18015,0.0037 0.18015,0.0037 0.27467,-0.125144 0.27467,-0.125145 0.33858,0.119447 0.33858,0.119572 0.63472,0.05298 z m -3.25287,-0.139713 0.55544,0.04511 -6e-5,-0.06697 -7e-5,-0.06697 -0.23802,-0.04261 -0.23802,-0.04261 -0.31736,0.0646 -0.31736,0.0646 z m 3.70871,-1.928452 0.0731,-0.01587 0.47604,-0.0651 0.47604,-0.0651 -0.28011,-0.06085 -0.2801,-0.06085 -0.32709,0.04798 -0.32709,0.04798 0.0581,0.09396 0.0581,0.09396 z m -1.01122,-0.05922 0.60827,0.05985 v -0.08834 -0.08834 l -0.60827,-0.04148 -0.60827,-0.04148 -0.0441,0.03174 -0.0441,0.03174 0.0441,0.03823 0.0441,0.03823 z m -1.49396,-0.04147 0.38374,0.01125 0.14519,-0.178483 0.14518,-0.178484 -0.21157,0.08584 -0.21157,0.08584 -0.31736,0.08184 -0.31736,0.08184 z m -0.52995,0.01125 h 0.1058 l -0.0654,-0.105828 -0.0654,-0.105828 h -0.1058 -0.10579 l 0.0654,0.105828 0.0654,0.105828 z m 4.77436,-1.265447 0.29091,0.08634 v -0.07322 -0.07322 l -0.90421,-0.313424 -0.90421,-0.313437 -0.49746,0.195476 -0.49746,0.195489 -0.43219,0.0491 -0.43218,0.0491 -0.56554,-0.167951 -0.56554,-0.167951 -0.11304,0.0075 -0.11304,0.0075 0.52893,0.18813 0.52894,0.188129 0.49348,0.07372 0.49348,0.07372 0.64019,-0.269411 0.64018,-0.269443 0.55892,0.223451 0.55892,0.223451 0.29091,0.08634 z m 2.98847,-1.426514 c -0.74017,-0.07243 0,0 0,0 z"
       style="fill:#ffffff;fill-opacity:1;stroke-width:0.999998"
       id="path1075"
       sodipodi:nodetypes="cccccccccccccccccccccccccccccccccccccccccccccccccccccccccccccccccccccccccccccccccccccccccccccccccccccccccccccccccccccccccccccccccccccccccccccccccccccccccccccccccccccccccccccccccccccccccccccccccccccccccccccccccccccccccccccccccccccccccccccccccccccccccccccccccccccccccccccccccccccccccccccccccccccccccccccccccccccccccccccccccccccccccccccccccccccccccccccccccccccccccccccccccccccccccccccccccccccccccccccccccccccccccccccccccccccccccccccccccccccccccccccccccccccccccccccccccccccccccccccccccccccccccccccccccccccccccccccccccccccccccccccccccccccccccccccc" />
    <path
       d="m 128.3618,83.146313 0.65896,0.09196 0.65895,0.09196 0.14495,-0.117199 0.14495,-0.117198 h 0.79245 0.79252 l -0.35564,-0.09333 -0.35564,-0.09333 -0.70456,0.124819 -0.70455,0.12482 -0.48685,-0.07297 -0.48685,-0.07297 m 6.19041,-9.74091 5.07864,0.114435 1.42812,-0.07522 1.42812,-0.07509 -0.31736,-0.02561 -0.31736,-0.02561 -0.89919,0.005 -0.89918,0.005 -2.75046,-0.0037 -2.75045,-0.0037 -0.0908,-0.09021 m -6.61072,22.048997 0.88292,0.0522 0.47604,-0.16128 0.47604,-0.16129 0.74051,0.0615 0.74051,0.0615 0.52893,0.0551 0.52894,0.0551 0.68761,-0.17874 0.68761,-0.17875 0.7934,-0.0663 0.7934,-0.0663 -0.35476,-0.0886 -0.35475,-0.0886 -0.86179,0.12817 -0.86179,0.12817 -0.26447,0.0846 -0.26446,0.0846 -0.47604,-0.0245 -0.47604,-0.0245 -0.62542,-0.13571 -0.62542,-0.13572 -0.32666,0.0547 -0.32667,0.0547 -0.31736,0.13275 -0.31736,0.13276 -0.95207,-0.0244 -0.95208,-0.0244 -0.21158,-0.0501 -0.21157,-0.05 0.28073,0.16059 0.28073,0.16059 z m -5.04113,-0.002 0.74051,0.0436 0.31736,-0.1 0.31736,-0.1 0.47604,-0.0547 0.47604,-0.0547 0.50249,-0.0141 0.50248,-0.0141 v -0.0757 -0.0757 l -0.29091,-0.0417 -0.29091,-0.0417 -0.95208,0.13297 -0.95208,0.13295 -0.42315,0.0649 -0.42315,0.0648 -0.71123,-0.0967 -0.71123,-0.0967 -0.11928,0.0737 -0.11929,0.0737 0.46026,0.0679 0.46026,0.0678 z m -4.34254,-0.0593 0.53423,-0.0131 0.48093,-0.13205 0.48093,-0.13205 0.50136,0.0761 0.50137,0.0761 0.0554,-0.0896 0.0554,-0.0896 -0.19137,-0.009 -0.19137,-0.009 -0.21158,-0.0414 -0.21157,-0.0414 -0.32981,-0.0656 -0.32982,-0.0656 -0.3261,0.16864 -0.3261,0.16862 h -0.51302 -0.51303 l -0.1005,-0.1002 -0.10049,-0.10021 -0.55077,-0.032 -0.55077,-0.032 -0.006,0.0993 -0.006,0.0993 0.5512,0.0329 0.5512,0.0329 0.10586,0.10583 0.10587,0.10583 0.53422,-0.0131 z m 17.67166,-0.12482 0.21157,0.054 -0.20714,-0.15786 -0.20714,-0.15785 -0.12596,0.0483 -0.12597,0.0483 -0.0698,-0.11295 -0.0698,-0.11295 h -0.0995 -0.0995 v 0.1037 0.10383 l 0.29092,0.0647 0.29091,0.0647 z m -3.4821,-2.04862 0.62586,0.06 0.58183,-0.21851 0.58183,-0.21852 0.52893,0.10658 0.52893,0.1067 0.0411,-0.0385 0.0411,-0.0384 -0.30558,-0.11907 -0.30559,-0.11907 -0.65327,0.0585 -0.65328,0.0585 -0.37864,0.1582 -0.37863,0.15821 -0.80222,-0.15348 -0.80221,-0.1535 h -0.40759 -0.40761 l -0.0605,0.098 -0.0605,0.098 0.55675,-0.0291 0.55675,-0.0291 0.27333,0.0775 0.27333,0.0775 z m 3.86117,-0.0434 0.89037,-0.009 0.10819,-0.0454 0.10819,-0.0454 0.63232,-0.10095 0.63231,-0.10096 -0.68761,0.0631 -0.68761,0.0631 -0.88557,0.0339 -0.88558,0.0339 -0.0577,0.0577 -0.0577,0.0577 0.89037,-0.009 z m 2.68874,-0.0973 h 0.15868 v -0.0416 -0.0416 l -0.15868,-0.0609 -0.15868,-0.0609 v 0.10246 0.10245 z m -3.33228,-2.34807 0.37026,0.004 0.37025,-0.16268 0.37025,-0.16268 0.95208,0.0503 0.95208,0.0504 -0.31736,-0.0781 -0.31736,-0.0781 -0.85158,-0.0125 -0.85158,-0.0125 -0.12156,0.12157 -0.12157,0.12157 -0.40208,0.0778 -0.40208,0.0778 0.37026,0.004 z m -1.22536,0.0134 0.30855,0.007 -0.0441,-0.0381 -0.0441,-0.0382 -0.47604,-0.063 -0.47604,-0.063 0.21157,0.0937 0.21157,0.0937 0.30855,0.008 z m -2.94439,-0.005 0.20276,-0.0126 0.37025,-0.14467 0.37025,-0.14467 0.58183,0.0465 0.58183,0.0465 -0.26447,-0.0902 -0.26447,-0.0902 -0.42314,-0.009 -0.42315,-0.009 -0.39473,0.13749 -0.39472,0.13748 -0.0725,0.0725 -0.0725,0.0725 0.20276,-0.0126 z m -0.55763,0.005 0.23145,-0.008 -0.7934,-0.19754 -0.7934,-0.19754 -0.42586,-0.0247 -0.42586,-0.0247 -0.20886,0.12195 -0.20886,0.12194 0.47604,-0.0601 0.47604,-0.0601 0.72062,0.1683 0.72063,0.1683 0.23146,-0.008 z m -3.33885,-0.14319 0.55538,0.0725 v -0.11945 -0.11945 h -0.58878 -0.58878 l -0.20462,-0.10945 -0.20462,-0.10945 v 0.0981 0.0981 l 0.23802,0.0585 0.23802,0.0585 z m 11.85849,-2.599512 h 0.15711 l -0.0596,-0.0596 -0.0596,-0.0596 -0.51343,-0.135952 -0.51343,-0.13594 -0.26447,-0.08084 -0.26446,-0.08084 0.10579,0.108077 0.10579,0.108078 0.57458,0.168275 0.57458,0.168289 z m -4.16251,-0.130236 0.21157,-0.0037 0.58183,-0.08159 0.58183,-0.08159 0.63472,-0.160142 0.63472,-0.160154 -0.3915,-0.0087 -0.39149,-0.0087 -0.50769,0.106328 -0.5077,0.106328 -0.37025,0.04523 -0.37025,0.04523 -0.42315,0.01774 -0.42314,0.01774 0.26446,0.08471 0.26447,0.08471 0.21157,-0.0037 z m -0.8867,-0.18717 h 0.10579 l -0.0654,-0.105829 -0.0654,-0.105828 h -0.10579 -0.10579 l 0.0654,0.105828 0.0654,0.105829 z m -3.34476,-0.013 0.7405,-0.01287 0.83161,-0.139913 0.8316,-0.139913 0.0676,-0.07184 0.0676,-0.07184 -0.58182,0.05847 -0.58183,0.05848 -0.37025,0.08046 -0.37026,0.08047 -0.7405,0.0012 -0.74051,0.0012 -0.50619,-0.180395 -0.50618,-0.180408 h -0.40653 -0.40653 l -0.37978,0.15868 -0.37977,0.15868 -0.45299,0.0012 -0.45299,0.0012 0.15868,0.10258 0.15868,0.102579 0.28214,0.0012 0.28214,0.0012 0.49358,-0.211581 0.49358,-0.211569 h 0.30751 0.30745 l 0.55652,0.211519 0.55651,0.211519 0.74051,-0.01287 z m 2.80334,-0.215329 h 0.26447 l -0.13223,-0.05335 -0.13224,-0.05335 -0.13223,0.05335 -0.13223,0.05335 z m -7.37364,-0.09758 0.12726,-0.0087 -0.42315,-0.200237 -0.42315,-0.200237 -0.29431,-0.0025 -0.29431,-0.0025 -0.3831,0.160079 -0.38309,0.160067 0.0496,0.0496 0.0496,0.0496 0.66319,-0.116823 0.66319,-0.116824 0.26046,0.118698 0.26045,0.118697 0.12726,-0.0087 z m 8.99313,-3.494894 0.0202,-0.0125 0.31736,-0.08071 0.31736,-0.08071 -0.40294,-0.0125 -0.40295,-0.01249 0.0654,0.105828 0.0654,0.105828 z m 0.8665,-0.21602 0.21157,-0.01125 0.21157,-0.04323 0.21158,-0.04323 0.26446,-0.204485 0.26447,-0.204472 -0.15868,-0.0012 -0.15868,-0.0012 -0.52893,0.260185 -0.52894,0.260198 0.21158,-0.01125 z m -4.06397,-0.05273 0.0441,0.03536 0.34917,-0.07597 0.34918,-0.07597 0.074,-0.07921 0.074,-0.07922 -0.42315,0.07634 -0.42314,0.07634 -0.0441,0.04348 -0.0441,0.04348 z m -0.5113,0.0087 0.3967,0.07172 v -0.110572 -0.110576 h -0.44078 -0.44078 l 0.0441,0.03886 0.0441,0.03886 z m 2.61822,-0.0608 h 0.26446 l -0.13223,-0.05335 -0.13223,-0.05335 -0.13224,0.05335 -0.13223,0.05335 z m 4.01989,-0.1142 h 0.37025 l -0.18513,-0.04835 -0.18512,-0.04835 -0.18513,0.04835 -0.18513,0.04835 z m -0.54914,-0.0833 0.17888,-0.0012 -0.15868,-0.10258 -0.15868,-0.102579 -0.0856,-0.0012 -0.0856,-0.0012 0.0654,0.105828 0.0654,0.105828 0.17888,-0.0012 z m 0.65492,-2.334139 0.26447,0.125957 -0.20535,-0.164515 -0.20534,-0.164515 h -0.10321 -0.10319 l 0.0441,0.03861 0.0441,0.03861 z m -2.46829,-0.363879 1.81607,0.0011 -0.22178,-0.08296 -0.22177,-0.08296 -0.58932,-0.0616 -0.58932,-0.0616 -0.78375,0.121697 -0.78374,0.121571 -0.77904,-0.23126 -0.77903,-0.231273 -0.42284,0.139551 -0.42283,0.13955 -0.13012,-4.24e-4 -0.13011,-4.25e-4 -0.3967,-0.07484 -0.3967,-0.07484 v 0.09833 0.09833 l 0.57286,0.07159 0.57286,0.07159 0.44839,-0.120697 0.44838,-0.120697 0.48621,0.139539 0.48622,0.139538 1.81606,0.0011 z m 1.14596,-2.231487 0.63472,0.05298 0.62332,-0.141475 0.62332,-0.141475 0.32175,0.09234 0.32176,0.09233 0.0389,-0.03886 0.0389,-0.03886 -0.33854,-0.117948 -0.33855,-0.118073 h -0.33331 -0.33331 l -0.11512,0.115075 -0.11513,0.115074 h -0.74184 -0.74184 l -0.21511,-0.115074 -0.2151,-0.115075 -0.40366,0.0037 -0.40365,0.0037 -0.26447,0.151183 -0.26447,0.151184 0.18015,0.0037 0.18015,0.0037 0.27467,-0.125144 0.27467,-0.125145 0.33858,0.119447 0.33858,0.119572 0.63472,0.05298 z m -3.25287,-0.139713 0.55544,0.04511 -6e-5,-0.06697 -7e-5,-0.06697 -0.23802,-0.04261 -0.23802,-0.04261 -0.31736,0.0646 -0.31736,0.0646 z m 3.70871,-1.928452 0.0731,-0.01587 0.47604,-0.0651 0.47604,-0.0651 -0.28011,-0.06085 -0.2801,-0.06085 -0.32709,0.04798 -0.32709,0.04798 0.0581,0.09396 0.0581,0.09396 z m -1.01122,-0.05922 0.60827,0.05985 v -0.08834 -0.08834 l -0.60827,-0.04148 -0.60827,-0.04148 -0.0441,0.03174 -0.0441,0.03174 0.0441,0.03823 0.0441,0.03823 z m -1.49396,-0.04147 0.38374,0.01125 0.14519,-0.178483 0.14518,-0.178484 -0.21157,0.08584 -0.21157,0.08584 -0.31736,0.08184 -0.31736,0.08184 z m -0.52995,0.01125 h 0.1058 l -0.0654,-0.105828 -0.0654,-0.105828 h -0.1058 -0.10579 l 0.0654,0.105828 0.0654,0.105828 z m 4.77436,-1.265447 0.29091,0.08634 v -0.07322 -0.07322 l -0.90421,-0.313424 -0.90421,-0.313437 -0.49746,0.195476 -0.49746,0.195489 -0.43219,0.0491 -0.43218,0.0491 -0.56554,-0.167951 -0.56554,-0.167951 -0.11304,0.0075 -0.11304,0.0075 0.52893,0.18813 0.52894,0.188129 0.49348,0.07372 0.49348,0.07372 0.64019,-0.269411 0.64018,-0.269443 0.55892,0.223451 0.55892,0.223451 0.29091,0.08634 z m 2.98847,-1.426514 c -0.74017,-0.07243 0,0 0,0 z"
       style="fill:#ffffff;fill-opacity:1;stroke-width:0.999998"
       id="path1075-3"
       sodipodi:nodetypes="cccccccccccccccccccccccccccccccccccccccccccccccccccccccccccccccccccccccccccccccccccccccccccccccccccccccccccccccccccccccccccccccccccccccccccccccccccccccccccccccccccccccccccccccccccccccccccccccccccccccccccccccccccccccccccccccccccccccccccccccccccccccccccccccccccccccccccccccccccccccccccccccccccccccccccccccccccccccccccccccccccccccccccccccccccccccccccccccccccccccccccccccccccccccccccccccccccccccccccccccccccccccccccccccccccccccccccccccccccccccccccccccccccccccccccccccccccccccccccccccccccccccccccccccccccccccccccccccccccccccccccccccccccccccccccccc" />
    <path
       d="m 25.885018,72.969149 -10.182033,-0.0307 1.3e-4,0.079 1.29e-4,0.079 9.899744,0.04 9.899725,0.04 0.11549,0.11514 -0.0504,-0.30817 m -20.287426,0.14343 0.253888,-4.2e-4 -0.127152,-0.12673 -0.127152,-0.12674 -0.126736,0.12715 -0.126735,0.12715 z m -2.10645,-0.004 1.273969,0.008 -0.06623,-0.10672 -0.0662,-0.10672 -1.5012,0.0112 -1.5012,0.0112 0.293446,0.0877 0.293447,0.0877 1.273967,0.008 z m -2.649251,-0.0754 0.428046,0.0402 0.127267,-0.0812 0.127268,-0.0812 -0.55538,-2.9e-4 -0.555381,-2.9e-4 6.8e-5,0.0417 6.9e-5,0.0417 0.428044,0.0402 z m -1.8604908,0.0774 0.681311,0.009 0.06439,-0.10456 0.06438,-0.10456 -0.687612,0.001 -0.687613,10e-4 -0.05809,0.0943 -0.05809,0.0943 0.68131,0.009 z m -2.062775,-0.0275 0.947186,0.007 0.122684,-0.076 0.122684,-0.076 -1.070255,-0.0151 -1.070254,-0.0151 3.48e-4,0.0836 3.48e-4,0.0836 0.947186,0.007 z m -1.317873,0.0338 0.211588,0.008 -0.158848,-0.10232 -0.158848,-0.10232 -0.317345,0.009 -0.317346,0.009 0.264605,0.0843 0.264605,0.0843 0.211587,0.008 z"
       style="fill:#ffffff;fill-opacity:1;stroke-width:0.999998"
       id="path1159"
       sodipodi:nodetypes="ccccccccccccccccccccccccccccccccccccccccccccccccccccccccccccccccc" />
    <path
       d="m 121.05645,73.087085 10.18204,-0.0307 -1.3e-4,0.079 -1.3e-4,0.079 -9.89975,0.04 -9.89972,0.04 -0.11549,0.11513 0.0504,-0.30816 m 20.28742,0.14343 -0.25388,-4.2e-4 0.12715,-0.12674 0.12715,-0.12673 0.12674,0.12715 0.12673,0.12715 z m 2.10645,-0.004 -1.27397,0.008 0.0662,-0.10672 0.0662,-0.10672 1.5012,0.0112 1.5012,0.0112 -0.29344,0.0877 -0.29345,0.0877 -1.27397,0.008 z m 2.64925,-0.0754 -0.42804,0.0402 -0.12727,-0.0812 -0.12727,-0.0812 0.55538,-2.9e-4 0.55538,-2.9e-4 -6e-5,0.0417 -7e-5,0.0417 -0.42805,0.0402 z m 1.8605,0.0774 -0.68132,0.009 -0.0644,-0.10456 -0.0644,-0.10456 0.68762,0.001 0.68761,10e-4 0.0581,0.0943 0.0581,0.0943 -0.68131,0.009 z m 2.06277,-0.0275 -0.94719,0.007 -0.12268,-0.076 -0.12268,-0.076 1.07025,-0.0151 1.07025,-0.0151 -3.5e-4,0.0836 -3.4e-4,0.0836 -0.94719,0.007 z m 1.31787,0.0338 -0.21159,0.008 0.15885,-0.10232 0.15885,-0.10232 0.31734,0.009 0.31735,0.009 -0.26461,0.0843 -0.2646,0.0843 -0.21159,0.008 z"
       style="fill:#ffffff;fill-opacity:1;stroke-width:0.999998"
       id="path1159-3"
       sodipodi:nodetypes="ccccccccccccccccccccccccccccccccccccccccccccccccccccccccccccccccc" />
    <path
       d="m 94.679745,73.242961 5.07865,0.11443 1.428115,-0.0752 1.42812,-0.0751 -0.31736,-0.0256 -0.31736,-0.0256 -0.89919,0.005 -0.89918,0.005 -2.750455,-0.004 -2.75045,-0.004 -0.0908,-0.0902 m 3.62427,0.89959 m 4.505975,-0.73955 c -0.74017,-0.0724 0,0 0,0 z"
       style="fill:#ffffff;fill-opacity:1;stroke-width:0.999998"
       id="path1205" />
    <path
       d="m 15.032951,83.07751 -0.65896,0.092 -0.65895,0.092 -0.14495,-0.1172 -0.14495,-0.1172 h -0.79245 -0.79252 l 0.35564,-0.0933 0.35564,-0.0933 0.70456,0.12482 0.70455,0.12482 0.48685,-0.073 0.48685,-0.073 m -6.1904051,-9.740908 -5.078645,0.114435 -1.42812,-0.07522 -1.42812004,-0.07509 0.31736004,-0.02561 0.31736,-0.02561 0.89919,0.005 0.89918,0.005 2.75046,-0.0037 2.75045,-0.0037 0.0908,-0.09021 m 6.6107201,22.048993 -0.88292,0.0522 -0.47604,-0.16128 -0.47604,-0.16129 -0.74051,0.0615 -0.74051,0.0615 -0.52893,0.0551 -0.52894,0.0551 -0.68761,-0.17875 -0.6876101,-0.17874 -0.7934,-0.0663 -0.7934,-0.0663 0.35476,-0.0886 0.35475,-0.0886 0.86179,0.12817 0.8617901,0.12816 0.26447,0.0846 0.26446,0.0846 0.47604,-0.0245 0.47604,-0.0245 0.62542,-0.13571 0.62542,-0.13572 0.32666,0.0547 0.32667,0.0547 0.31736,0.13276 0.31736,0.13275 0.95207,-0.0244 0.95208,-0.0244 0.21158,-0.0501 0.21157,-0.05 -0.28073,0.16059 -0.28073,0.16059 z m 5.04113,-0.003 -0.74051,0.0436 -0.31736,-0.1 -0.31736,-0.1 -0.47604,-0.0547 -0.47604,-0.0547 -0.50249,-0.0141 -0.50248,-0.0141 v -0.0757 -0.0757 l 0.29091,-0.0417 0.29091,-0.0417 0.95208,0.13297 0.95208,0.13295 0.42315,0.0648 0.42315,0.0649 0.71123,-0.0967 0.71123,-0.0967 0.11928,0.0737 0.11929,0.0737 -0.46026,0.0678 -0.46026,0.0678 z m 4.34254,-0.0593 -0.53423,-0.0131 -0.48093,-0.13204 -0.48093,-0.13206 -0.50136,0.0761 -0.50137,0.0761 -0.0554,-0.0896 -0.0554,-0.0896 0.19137,-0.009 0.19137,-0.009 0.21158,-0.0414 0.21157,-0.0414 0.32981,-0.0656 0.32982,-0.0656 0.3261,0.16864 0.3261,0.16863 h 0.51302 0.51303 l 0.1005,-0.10021 0.10049,-0.1002 0.55077,-0.032 0.55077,-0.032 0.006,0.0993 0.006,0.0993 -0.5512,0.0329 -0.5512,0.0329 -0.10586,0.10582 -0.10587,0.10583 -0.53422,-0.0131 z m -17.6716601,-0.12482 -0.21157,0.054 0.20714,-0.15786 0.20714,-0.15785 0.12596,0.0483 0.12597,0.0483 0.0698,-0.11295 0.0698,-0.11295 h 0.0995 0.0995 v 0.1037 0.10383 l -0.29092,0.0647 -0.29091,0.0647 z m 3.4821001,-2.04861 -0.62586,0.06 -0.5818301,-0.21852 -0.58183,-0.21851 -0.52893,0.10657 -0.52893,0.10671 -0.0411,-0.0385 -0.0411,-0.0384 0.30558,-0.11908 0.30559,-0.11907 0.65327,0.0585 0.65328,0.0585 0.3786401,0.15821 0.37863,0.1582 0.80222,-0.15348 0.80221,-0.15349 h 0.40759 0.40761 l 0.0605,0.098 0.0605,0.098 -0.55675,-0.0291 -0.55675,-0.0291 -0.27333,0.0775 -0.27333,0.0775 z m -3.8611701,-0.0434 -0.89037,-0.009 -0.10819,-0.0454 -0.10819,-0.0454 -0.63232,-0.10096 -0.63231,-0.10095 0.68761,0.0631 0.68761,0.0631 0.88557,0.0339 0.88558,0.0339 0.0577,0.0577 0.0577,0.0577 -0.89037,-0.009 z m -2.68874,-0.0973 h -0.15868 v -0.0416 -0.0416 l 0.15868,-0.0609 0.15868,-0.0609 v 0.10245 0.10246 z m 3.33228,-2.34808 -0.37026,0.004 -0.37025,-0.16268 -0.37025,-0.16268 -0.95208,0.0504 -0.95208,0.0503 0.31736,-0.0781 0.31736,-0.0781 0.85158,-0.0125 0.85158,-0.0125 0.12156,0.12157 0.12157,0.12158 0.40208,0.0778 0.40208,0.0778 -0.37026,0.004 z m 1.22536,0.0134 -0.30855,0.008 0.0441,-0.0381 0.0441,-0.0382 0.47604,-0.063 0.47604,-0.063 -0.21157,0.0937 -0.21157,0.0937 -0.30855,0.007 z m 2.9443901,-0.005 -0.20276,-0.0126 -0.37025,-0.14466 -0.37025,-0.14467 -0.58183,0.0465 -0.5818301,0.0465 0.26447,-0.0902 0.2644701,-0.0902 0.42314,-0.009 0.42315,-0.009 0.39473,0.13748 0.39472,0.13748 0.0725,0.0725 0.0725,0.0725 -0.20276,-0.0126 z m 0.55763,0.005 -0.23145,-0.007 0.7934,-0.19754 0.7934,-0.19754 0.42586,-0.0247 0.42586,-0.0247 0.20886,0.12195 0.20886,0.12195 -0.47604,-0.0601 -0.47604,-0.0601 -0.72062,0.1683 -0.72063,0.1683 -0.23146,-0.007 z m 3.33885,-0.14319 -0.55538,0.0725 v -0.11945 -0.11944 h 0.58878 0.58878 l 0.20462,-0.10945 0.20462,-0.10946 v 0.0981 0.0981 l -0.23802,0.0585 -0.23802,0.0585 z M 3.6287109,87.62372 h -0.15711 l 0.0596,-0.0596 0.0596,-0.0596 0.51343,-0.13595 0.51343,-0.13594 0.26447,-0.0808 0.26446,-0.0808 -0.10579,0.10808 -0.10579,0.10808 -0.57458,0.16827 -0.57458,0.16829 z m 4.16251,-0.13023 -0.21157,-0.004 -0.58183,-0.0816 -0.58183,-0.0816 -0.63472,-0.16015 -0.63472,-0.16015 0.3915,-0.009 0.39149,-0.009 0.50769,0.10633 0.5077,0.10633 0.37025,0.0452 0.37025,0.0452 0.42315,0.0177 0.42314,0.0177 -0.26446,0.0847 -0.26447,0.0847 -0.21157,-0.004 z m 0.8867,-0.18717 h -0.10579 l 0.0654,-0.10583 0.0654,-0.10583 h 0.10579 0.10579 l -0.0654,0.10583 -0.0654,0.10583 z m 3.3447601,-0.013 -0.7405,-0.0129 -0.83161,-0.13992 -0.8316001,-0.13991 -0.0676,-0.0718 -0.0676,-0.0718 0.5818201,0.0585 0.58183,0.0585 0.37025,0.0805 0.37026,0.0805 0.7405,0.001 0.74051,10e-4 0.50619,-0.18039 0.50618,-0.18041 h 0.40653 0.40653 l 0.37978,0.15868 0.37977,0.15868 0.45299,0.001 0.45299,0.001 -0.15868,0.10258 -0.15868,0.10258 -0.28214,0.001 -0.28214,0.001 -0.49358,-0.21158 -0.49358,-0.21157 h -0.30751 -0.30745 l -0.55652,0.21152 -0.55651,0.21151 -0.74051,-0.0129 z M 9.2193409,87.07799 h -0.26447 l 0.13223,-0.0534 0.13224,-0.0533 0.13223,0.0533 0.13223,0.0534 z m 7.3736401,-0.0976 -0.12726,-0.009 0.42315,-0.20024 0.42315,-0.20024 0.29431,-0.003 0.29431,-0.002 0.3831,0.16008 0.38309,0.16007 -0.0496,0.0496 -0.0496,0.0496 -0.66319,-0.11682 -0.66319,-0.11683 -0.26046,0.1187 -0.26045,0.1187 -0.12726,-0.009 z m -8.9931301,-3.4949 -0.0202,-0.0125 -0.31736,-0.0807 -0.31736,-0.0807 0.40294,-0.0125 0.40295,-0.0125 -0.0654,0.10583 -0.0654,0.10583 z m -0.8665,-0.21602 -0.21157,-0.0112 -0.21157,-0.0432 -0.21158,-0.0432 -0.26446,-0.20448 -0.26447,-0.20447 0.15868,-10e-4 0.15868,-0.001 0.52893,0.26018 0.52894,0.2602 -0.21158,-0.0112 z m 4.0639701,-0.0527 -0.0441,0.0354 -0.34917,-0.076 -0.34918,-0.076 -0.074,-0.0792 -0.074,-0.0792 0.4231501,0.0763 0.42314,0.0763 0.0441,0.0435 0.0441,0.0435 z m 0.5113,0.009 -0.3967,0.0717 V 83.1869 83.07633 h 0.44078 0.44078 l -0.0441,0.0389 -0.0441,0.0389 z m -2.6182201,-0.0608 h -0.26446 l 0.13223,-0.0534 0.13223,-0.0533 0.13224,0.0533 0.13223,0.0534 z m -4.01989,-0.1142 h -0.37025 l 0.18513,-0.0483 0.18512,-0.0483 0.18513,0.0483 0.18513,0.0483 z m 0.54914,-0.0833 -0.17888,-0.001 0.15868,-0.10258 0.15868,-0.10258 0.0856,-10e-4 0.0856,-0.001 -0.0654,0.10583 -0.0654,0.10583 -0.17888,-10e-4 z m -0.65492,-2.33414 -0.26447,0.12596 0.20535,-0.16451 0.20534,-0.16452 h 0.10321 0.10319 l -0.0441,0.0386 -0.0441,0.0386 z m 2.46829,-0.36387 -1.81607,0.001 0.22178,-0.083 0.22177,-0.083 0.58932,-0.0616 0.58932,-0.0616 0.78375,0.12169 0.78374,0.12157 0.77904,-0.23126 0.77903,-0.23127 0.4228401,0.13955 0.42283,0.13955 0.13012,-4.2e-4 0.13011,-4.3e-4 0.3967,-0.0748 0.3967,-0.0748 v 0.0983 0.0983 l -0.57286,0.0716 -0.57286,0.0716 -0.44839,-0.12069 -0.4483801,-0.1207 -0.48621,0.13954 -0.48622,0.13954 -1.81606,0.001 z m -1.14596,-2.23149 -0.63472,0.053 -0.62332,-0.14148 -0.62332,-0.14147 -0.32175,0.0923 -0.32176,0.0923 -0.0389,-0.0389 -0.0389,-0.0389 0.33854,-0.11795 0.33855,-0.11807 h 0.33331 0.33331 l 0.11512,0.11507 0.11513,0.11508 h 0.74184 0.74184 l 0.21511,-0.11508 0.2151,-0.11507 0.40366,0.004 0.40365,0.004 0.26447,0.15118 0.26447,0.15118 -0.18015,0.004 -0.18015,0.004 -0.27467,-0.12514 -0.27467,-0.12514 -0.33858,0.11944 -0.33858,0.11957 -0.63472,0.053 z m 3.25287,-0.13971 -0.55544,0.0451 6e-5,-0.067 7e-5,-0.067 0.23802,-0.0426 0.23802,-0.0426 0.31736,0.0646 0.31736,0.0646 z m -3.70871,-1.928457 -0.0731,-0.01587 -0.47604,-0.0651 -0.47604,-0.0651 0.28011,-0.06085 0.2801,-0.06085 0.32709,0.04798 0.32709,0.04798 -0.0581,0.09396 -0.0581,0.09396 z m 1.01122,-0.05922 -0.60827,0.05985 v -0.08834 -0.08834 l 0.60827,-0.04148 0.60827,-0.04148 0.0441,0.03174 0.0441,0.03174 -0.0441,0.03823 -0.0441,0.03823 z m 1.49396,-0.04147 -0.38374,0.01125 -0.14519,-0.178483 -0.14518,-0.178484 0.21157,0.08584 0.21157,0.08584 0.31736,0.08184 0.31736,0.08184 z m 0.52995,0.01125 h -0.1058 l 0.0654,-0.105828 0.0654,-0.105828 h 0.1058 0.10579 l -0.0654,0.105828 -0.0654,0.105828 z m -4.77436,-1.265447 -0.29091,0.08634 v -0.07322 -0.07322 l 0.90421,-0.313424 0.90421,-0.313437 0.49746,0.195476 0.49746,0.195489 0.43219,0.0491 0.43218,0.0491 0.56554,-0.167951 0.56554,-0.167951 0.11304,0.0075 0.11304,0.0075 -0.52893,0.18813 -0.52894,0.188129 -0.49348,0.07372 -0.49348,0.07372 -0.64019,-0.269411 -0.64018,-0.269443 -0.55892,0.223451 -0.55892,0.223451 -0.29091,0.08634 z M 0.70352086,73.188402 c 0.74017004,-0.07243 0,0 0,0 z"
       style="fill:#ffffff;fill-opacity:1;stroke-width:0.999998"
       id="path1075-7"
       sodipodi:nodetypes="cccccccccccccccccccccccccccccccccccccccccccccccccccccccccccccccccccccccccccccccccccccccccccccccccccccccccccccccccccccccccccccccccccccccccccccccccccccccccccccccccccccccccccccccccccccccccccccccccccccccccccccccccccccccccccccccccccccccccccccccccccccccccccccccccccccccccccccccccccccccccccccccccccccccccccccccccccccccccccccccccccccccccccccccccccccccccccccccccccccccccccccccccccccccccccccccccccccccccccccccccccccccccccccccccccccccccccccccccccccccccccccccccccccccccccccccccccccccccccccccccccccccccccccccccccccccccccccccccccccccccccccccccccccccccccccc" />
  </g>
  <text
     xml:space="preserve"
     transform="matrix(0.26458333,0,0,0.26458333,2.0786641,-9.6169112)"
     id="text6282"
     style="font-style:normal;font-variant:normal;font-weight:bold;font-stretch:normal;font-size:53.3333px;line-height:1.25;font-family:'Courier Prime';-inkscape-font-specification:'Courier Prime Bold';white-space:pre;shape-inside:url(#rect6284);display:inline"><tspan
       x="39.658203"
       y="105.39085"
       id="tspan1841">By Sound Alone</tspan></text>
  <text
     xml:space="preserve"
     transform="matrix(0.26458333,0,0,0.26458333,68.778308,106.71124)"
     id="text6282-6"
     style="font-style:normal;font-variant:normal;font-weight:normal;font-stretch:normal;font-size:32px;line-height:1.25;font-family:'Courier Prime';-inkscape-font-specification:'Courier Prime';white-space:pre;shape-inside:url(#rect6284-3);display:inline"><tspan
       x="39.658203"
       y="88.036867"
       id="tspan1845"><tspan
         style="fill:#ffffff"
         id="tspan1843">Mark Torrey</tspan></tspan></text>
  <text
     xml:space="preserve"
     transform="matrix(0.26458333,0,0,0.26458333,30.826357,188.76682)"
     id="text6282-6-5"
     style="font-style:normal;font-variant:normal;font-weight:normal;font-stretch:normal;font-size:24px;line-height:1.25;font-family:'Courier Prime';-inkscape-font-specification:'Courier Prime';white-space:pre;shape-inside:url(#rect6284-3-7);display:inline"><tspan
       x="39.658203"
       y="81.529115"
       id="tspan1849"><tspan
         style="fill:#fffdfd"
         id="tspan1847">(Director's Cut)</tspan></tspan></text>
</svg>
